<svg viewBox="0 0 597.47 295" xmlns="http://www.w3.org/2000/svg"><g transform="translate(-90.42 -202)"><g fill="#fff"><path d="m365.41 490.89v-.09s0 .06 0 .09z"/><path d="m365.4 490.8v.09s0-.06 0-.09z"/><path d="m365.41 490.89v-.09s0 .06 0 .09z"/><path d="m365.4 490.8v.09s0-.06 0-.09z"/></g><path d="m90.42 497c0-162.92 133.75-295 298.73-295s298.74 132.08 298.74 295" fill="#443266"/><path d="m599.29 335.48a39.21 39.21 0 0 0 -39.2-39.21h-341.87a39.21 39.21 0 0 0 -39.22 39.21v161.52h27.09v-45.13c0-30.64 24.6-55.47 54.89-55.47s54.84 24.83 54.88 55.47v45.13h19.6v-45.13c0-30.64 24.59-55.47 54.88-55.47s54.85 24.83 54.89 55.47v45.13h19.6v-45.13c0-30.64 24.6-55.47 54.89-55.47s54.84 24.83 54.88 55.47v45.13h24.66zm-393.18 40.73c0-30.67 24.57-55.54 54.89-55.54s54.88 24.87 54.88 55.54zm129.37 0c0-30.67 24.58-55.54 54.89-55.54s54.89 24.87 54.89 55.54zm129.38 0c0-30.67 24.57-55.54 54.89-55.54s54.88 24.87 54.88 55.54z" fill="#fff"/><path d="m365.4 490.8v.09s0-.06 0-.09z" fill="#fff"/><path d="m365.41 490.89v-.09s0 .06 0 .09z" fill="#fff"/></g></svg>