<svg fill="#000000" xmlns="http://www.w3.org/2000/svg" xmlns:xlink="http://www.w3.org/1999/xlink" viewBox="0 0 100 100" version="1.1" x="0px" y="0px"><title>Bilevel Viaduct</title><desc>Created with Sketch.</desc><g stroke="none" stroke-width="1" fill="none" fill-rule="evenodd"><g fill="#000000"><path d="M68,69 L61,69 C61,62.9248678 56.0751322,58 50,58 C43.9248678,58 39,62.9248678 39,69 L31.955157,69 C31.9848374,68.670638 32,68.3370897 32,68 C32,61.9248678 27.0751322,57 21,57 C14.9248678,57 10,61.9248678 10,68 C10,68.3370897 10.0151626,68.670638 10.044843,69 L5,69 L5,49.5 L5,30 L95,30 L95,49.5 L95,69 L90,69 C90,62.9248678 85.0751322,58 79,58 C72.9248678,58 68,62.9248678 68,69 Z M10,49 L32,49 C32,42.9248678 27.0751322,38 21,38 C14.9248678,38 10,42.9248678 10,49 Z M39.044843,49 L60.955157,49 C60.4499282,43.3935 55.7380426,39 50,39 C44.2619574,39 39.5500718,43.3935 39.044843,49 Z M68.044843,49 L89.955157,49 C89.4499282,43.3935 84.7380426,39 79,39 C73.2619574,39 68.5500718,43.3935 68.044843,49 Z"/></g></g></svg>