<svg id="Layer_1" data-name="Layer 1" xmlns="http://www.w3.org/2000/svg" viewBox="0 0 598 405"><defs><style>.cls-1{fill:#443266;}.cls-2{fill:#fff;}</style></defs><title>logo-stacked</title><rect class="cls-1" y="294" width="598" height="111"/><path class="cls-2" d="M330.33,511.52a16.88,16.88,0,0,1-1.6,7.32,16.66,16.66,0,0,1-10.35,8.83,13.91,13.91,0,0,1-4.46.89,20.73,20.73,0,0,1-9.55-2v-.89a17.37,17.37,0,0,0,12.05-1.43,13.14,13.14,0,0,0,6.69-8.21,12,12,0,0,0,.53-3.39v-2q-.18-6.24-3.3-9.95a10.84,10.84,0,0,0-8.74-3.7H301.34v53.26a5.74,5.74,0,0,0,1.74,4,5.41,5.41,0,0,0,4,1.65h1.16v.89H288.67v-.89h1.16a5.41,5.41,0,0,0,4-1.65,5.74,5.74,0,0,0,1.74-4V500.37a5.81,5.81,0,0,0-1.87-3.7,5.49,5.49,0,0,0-3.84-1.47h-1.07l-.09-.89H312q8.57,0,13.48,4.59T330.33,511.52Z" transform="translate(-219.74 -179)"/><path class="cls-2" d="M353.08,505.5a34.23,34.23,0,0,1,30.24,0,27.55,27.55,0,0,1,10.93,10,28.07,28.07,0,0,1,0,29.08,27.55,27.55,0,0,1-10.93,10A30.5,30.5,0,0,1,369.23,558a36.53,36.53,0,0,1-12.76-2,29.48,29.48,0,0,1-9.59-5.71,26.26,26.26,0,0,1-6.42-8.92A29.89,29.89,0,0,1,338.09,529a25,25,0,0,1,4.06-13.51A27.61,27.61,0,0,1,353.08,505.5Zm-1.65,42.73a23.31,23.31,0,0,0,33.5,0q6.78-7.08,6.78-18.24t-6.78-18.24a23.31,23.31,0,0,0-33.5,0q-6.74,7.08-6.73,18.24T351.43,548.23Z" transform="translate(-219.74 -179)"/><path class="cls-2" d="M478.16,555.86h1.33v.89H460.94V556h1.34a3.22,3.22,0,0,0,2.36-1,2.81,2.81,0,0,0,.85-2.45l-4.64-36.75L444,548.9a38.43,38.43,0,0,0-3.13,9.1H440l-21.5-41.48-4,36a2.8,2.8,0,0,0,.85,2.41,3.28,3.28,0,0,0,2.45,1.07H419v.8H402.5v-.89h1.34a5.94,5.94,0,0,0,5-2.32,5.44,5.44,0,0,0,1.07-2.76l7-48.8h.89l23.55,45.32L464.06,502h.8l7.23,49a5.48,5.48,0,0,0,2.05,3.56A6.25,6.25,0,0,0,478.16,555.86Z" transform="translate(-219.74 -179)"/><path class="cls-2" d="M486.27,555.86a5.11,5.11,0,0,0,3.62-1.38,4.75,4.75,0,0,0,1.56-3.35V508.76a4.23,4.23,0,0,0-1.52-3.3,5.3,5.3,0,0,0-3.66-1.34H485v-.89h26.05a33.94,33.94,0,0,0,6.43-.54,20.77,20.77,0,0,0,3.56-.89V512l-1-.09v-1.34a4.5,4.5,0,0,0-1.25-3.21,4.2,4.2,0,0,0-3.21-1.34H497.07v22.66h15.25a3.42,3.42,0,0,0,2.72-1.07,3.88,3.88,0,0,0,.94-2.68v-1.15h1v12.48h-1v-1.16a3.39,3.39,0,0,0-1.87-3.38,6.36,6.36,0,0,0-1.52-.36H497.07V554h14a15.21,15.21,0,0,0,6.92-1.43,12,12,0,0,0,4.28-3.39,30.34,30.34,0,0,0,3-5.17h.89l-4.91,12.75H485v-.89Z" transform="translate(-219.74 -179)"/><path class="cls-2" d="M549.52,506h-4.73v45a4.8,4.8,0,0,0,2.5,4.2,5.45,5.45,0,0,0,2.59.62H551l.09.89H532.84v-.89h1.25a5,5,0,0,0,3.52-1.38,4.43,4.43,0,0,0,1.47-3.35V508.76a4.28,4.28,0,0,0-1.47-3.3,5,5,0,0,0-3.52-1.34h-1.25v-.89h22.39q8.38,0,13.25,3.83a12.23,12.23,0,0,1,4.86,10.08,14.7,14.7,0,0,1-3.92,10.44,15.37,15.37,0,0,1-10,4.82q2.85,1.25,6.86,7-.09,0,3.08,3.92t5.09,6.11q1.92,2.19,3.16,3.35a10.73,10.73,0,0,0,7.59,3.12v.89h-2.77q-7.05,0-11.06-2.76a25.94,25.94,0,0,1-5.53-5.09q-.54-.71-4.51-6.29l-4.23-5.93q-4.83-6-9-6v-.89c6.95,0,11.15-.35,12.57-1.07a10.09,10.09,0,0,0,4-3.21,14.59,14.59,0,0,0,2.23-7.85c0-3.63-1.07-6.42-3.21-8.39a13.36,13.36,0,0,0-8.66-3.21C553.45,506,551.6,506,549.52,506Z" transform="translate(-219.74 -179)"/><path class="cls-2" d="M590,555.86a6.48,6.48,0,0,0,4.2-1.43A4.22,4.22,0,0,0,596,551v-42.1a4.22,4.22,0,0,0-1.78-3.39,6.66,6.66,0,0,0-4.28-1.43h-1.16v-.89h20.16v.89h-1.16a6.56,6.56,0,0,0-4.15,1.34,4.58,4.58,0,0,0-1.92,3.3v42.37a4.38,4.38,0,0,0,1.87,3.35,6.67,6.67,0,0,0,4.2,1.38h1.16l.09.89H588.78v-.89Z" transform="translate(-219.74 -179)"/><path class="cls-2" d="M673.17,504.12h-1.34a4.11,4.11,0,0,0-3.66,1.87,4,4,0,0,0-.62,1.88v30.06q0,9.29-5.93,14.68T645.33,558Q635,558,629,552.65T623,538V508a3.5,3.5,0,0,0-1.25-2.73,4.39,4.39,0,0,0-3-1.11h-1.34v-.89h17v.89H633a4.39,4.39,0,0,0-3,1.11,3.54,3.54,0,0,0-1.25,2.73v29q0,8.65,4.42,13.65t12.49,5q8.07,0,12.93-4.72t4.86-12.94V508a3.83,3.83,0,0,0-1.29-2.77,4.35,4.35,0,0,0-3-1.07h-1.34v-.89h15.35Z" transform="translate(-219.74 -179)"/><path class="cls-2" d="M752.21,555.86h1.34v.89H735V556h1.34a3.22,3.22,0,0,0,2.36-1,2.79,2.79,0,0,0,.85-2.45l-4.64-36.75L718,548.9a38.33,38.33,0,0,0-3.12,9.1H714l-21.5-41.48-4,36a2.82,2.82,0,0,0,.85,2.41,3.28,3.28,0,0,0,2.45,1.07h1.25v.8h-16.5v-.89h1.34a5.92,5.92,0,0,0,5-2.32,5.35,5.35,0,0,0,1.07-2.76l7-48.8h.89l23.56,45.32L738.11,502h.81l7.22,49a5.49,5.49,0,0,0,2.06,3.56A6.2,6.2,0,0,0,752.21,555.86Z" transform="translate(-219.74 -179)"/><path class="cls-2" d="M518.75,467.89v-.09h0S518.75,467.86,518.75,467.89Z" transform="translate(-219.74 -179)"/><path class="cls-2" d="M518.74,467.8v.09s0-.06,0-.09Z" transform="translate(-219.74 -179)"/><path class="cls-2" d="M518.75,467.89v-.09h0S518.75,467.86,518.75,467.89Z" transform="translate(-219.74 -179)"/><path class="cls-2" d="M518.74,467.8v.09s0-.06,0-.09Z" transform="translate(-219.74 -179)"/><path class="cls-1" d="M220,474c0-162.92,133.75-295,298.73-295S817.48,311.08,817.48,474" transform="translate(-219.74 -179)"/><path class="cls-2" d="M728.88,312.48a39.21,39.21,0,0,0-39.2-39.21H347.81a39.21,39.21,0,0,0-39.2,39.21V474H335.7V428.87h0c0-30.64,24.6-55.47,54.89-55.47s54.85,24.83,54.88,55.47h0V474h19.61V428.87h0c0-30.64,24.59-55.47,54.88-55.47s54.85,24.83,54.89,55.47h0V474h19.6V428.87h0c0-30.64,24.6-55.47,54.89-55.47s54.85,24.83,54.88,55.47h0V474h24.66ZM335.7,353.21c0-30.67,24.57-55.54,54.89-55.54s54.88,24.87,54.88,55.54Zm129.38,0c0-30.67,24.57-55.54,54.88-55.54s54.89,24.87,54.89,55.54Zm129.37,0c0-30.67,24.57-55.54,54.89-55.54s54.88,24.87,54.88,55.54Z" transform="translate(-219.74 -179)"/><path class="cls-2" d="M518.74,467.8v.09s0-.06,0-.09Z" transform="translate(-219.74 -179)"/><path class="cls-2" d="M518.75,467.89v-.09h0S518.75,467.86,518.75,467.89Z" transform="translate(-219.74 -179)"/></svg>