<svg viewBox="0 0 598 405" xmlns="http://www.w3.org/2000/svg"><path d="m0 294h598v111h-598z" fill="#6e43e8"/><g transform="translate(-219.74 -179)"><path d="m330.33 511.52a16.88 16.88 0 0 1 -1.6 7.32 16.66 16.66 0 0 1 -10.35 8.83 13.91 13.91 0 0 1 -4.46.89 20.73 20.73 0 0 1 -9.55-2v-.89a17.42 17.42 0 0 0 12.05-1.43 13.14 13.14 0 0 0 6.69-8.21 12 12 0 0 0 .53-3.39v-2q-.18-6.24-3.3-9.95a10.84 10.84 0 0 0 -8.74-3.7h-10.26v53.26a5.74 5.74 0 0 0 1.74 4 5.41 5.41 0 0 0 4 1.65h1.16v.89h-19.57v-.89h1.16a5.41 5.41 0 0 0 4-1.65 5.74 5.74 0 0 0 1.74-4v-49.88a5.81 5.81 0 0 0 -1.87-3.7 5.49 5.49 0 0 0 -3.84-1.47h-1.07l-.09-.89h23.3q8.57 0 13.48 4.59t4.85 12.62z" fill="#fff"/><path d="m353.08 505.5a34.23 34.23 0 0 1 30.24 0 27.55 27.55 0 0 1 10.93 10 28.07 28.07 0 0 1 0 29.08 27.55 27.55 0 0 1 -10.93 10 30.5 30.5 0 0 1 -14.09 3.42 36.53 36.53 0 0 1 -12.76-2 29.48 29.48 0 0 1 -9.59-5.71 26.26 26.26 0 0 1 -6.42-8.92 29.89 29.89 0 0 1 -2.37-12.37 25 25 0 0 1 4.06-13.51 27.61 27.61 0 0 1 10.93-9.99zm-1.65 42.73a23.31 23.31 0 0 0 33.5 0q6.78-7.1 6.78-18.24t-6.78-18.24a23.31 23.31 0 0 0 -33.5 0q-6.74 7.08-6.73 18.24t6.73 18.24z" fill="#fff"/><path d="m478.16 555.86h1.33v.89h-18.55v-.75h1.34a3.22 3.22 0 0 0 2.36-1 2.81 2.81 0 0 0 .85-2.45l-4.64-36.75-16.85 33.1a38.43 38.43 0 0 0 -3.13 9.1h-.87l-21.5-41.48-4 36a2.8 2.8 0 0 0 .85 2.41 3.28 3.28 0 0 0 2.45 1.07h1.2v.8h-16.5v-.89h1.34a5.94 5.94 0 0 0 5-2.32 5.44 5.44 0 0 0 1.07-2.76l7-48.8h.89l23.55 45.32 22.71-45.35h.8l7.23 49a5.48 5.48 0 0 0 2.05 3.57 6.25 6.25 0 0 0 4.02 1.29z" fill="#fff"/><path d="m486.27 555.86a5.11 5.11 0 0 0 3.62-1.38 4.75 4.75 0 0 0 1.56-3.35v-42.37a4.23 4.23 0 0 0 -1.52-3.3 5.3 5.3 0 0 0 -3.66-1.34h-1.27v-.89h26.05a33.94 33.94 0 0 0 6.43-.54 20.77 20.77 0 0 0 3.56-.89v10.2l-1-.09v-1.34a4.5 4.5 0 0 0 -1.25-3.21 4.2 4.2 0 0 0 -3.21-1.34h-18.51v22.66h15.25a3.42 3.42 0 0 0 2.72-1.07 3.88 3.88 0 0 0 .94-2.68v-1.15h1v12.48h-1v-1.16a3.42 3.42 0 0 0 -1.87-3.39 6.87 6.87 0 0 0 -1.52-.35h-15.52v22.64h14a15.21 15.21 0 0 0 6.92-1.43 12 12 0 0 0 4.28-3.39 30.34 30.34 0 0 0 3-5.17h.89l-4.91 12.75h-36.25v-.89z" fill="#fff"/><path d="m549.52 506h-4.73v45a4.8 4.8 0 0 0 2.5 4.2 5.45 5.45 0 0 0 2.59.62h1.12l.09.89h-18.25v-.89h1.25a5 5 0 0 0 3.52-1.38 4.43 4.43 0 0 0 1.47-3.35v-42.33a4.28 4.28 0 0 0 -1.47-3.3 5 5 0 0 0 -3.52-1.34h-1.25v-.89h22.39q8.38 0 13.25 3.83a12.23 12.23 0 0 1 4.86 10.08 14.7 14.7 0 0 1 -3.92 10.44 15.37 15.37 0 0 1 -10 4.82q2.85 1.25 6.86 7-.09 0 3.08 3.92t5.09 6.11q1.92 2.19 3.16 3.35a10.73 10.73 0 0 0 7.59 3.12v.89h-2.77q-7.05 0-11.06-2.76a26.21 26.21 0 0 1 -5.53-5.09q-.54-.71-4.51-6.29l-4.23-5.93q-4.83-6-9-6v-.89c6.95 0 11.15-.36 12.57-1.07a10.09 10.09 0 0 0 4-3.21 14.59 14.59 0 0 0 2.23-7.85q0-5.45-3.21-8.39a13.36 13.36 0 0 0 -8.66-3.21c-1.58-.1-3.43-.1-5.51-.1z" fill="#fff"/><path d="m590 555.86a6.48 6.48 0 0 0 4.2-1.43 4.22 4.22 0 0 0 1.8-3.43v-42.1a4.22 4.22 0 0 0 -1.78-3.39 6.6 6.6 0 0 0 -4.28-1.43h-1.16v-.89h20.16v.89h-1.16a6.56 6.56 0 0 0 -4.15 1.34 4.58 4.58 0 0 0 -1.92 3.3v42.37a4.38 4.38 0 0 0 1.87 3.35 6.67 6.67 0 0 0 4.2 1.38h1.16l.09.89h-20.25v-.89z" fill="#fff"/><path d="m673.17 504.12h-1.34a4.11 4.11 0 0 0 -3.66 1.87 4 4 0 0 0 -.62 1.88v30.06q0 9.29-5.93 14.67t-16.29 5.4q-10.33 0-16.33-5.35t-6-14.65v-30a3.5 3.5 0 0 0 -1.25-2.72 4.39 4.39 0 0 0 -3-1.11h-1.34v-.89h17v.89h-1.41a4.39 4.39 0 0 0 -3 1.11 3.53 3.53 0 0 0 -1.25 2.72v29q0 8.65 4.42 13.65t12.49 5q8.07 0 12.93-4.72t4.86-12.94v-29.99a3.82 3.82 0 0 0 -1.29-2.76 4.35 4.35 0 0 0 -3-1.07h-1.34v-.89h15.35z" fill="#fff"/><path d="m752.21 555.86h1.34v.89h-18.55v-.75h1.34a3.22 3.22 0 0 0 2.36-1 2.79 2.79 0 0 0 .85-2.45l-4.64-36.75-16.91 33.1a38.33 38.33 0 0 0 -3.12 9.1h-.88l-21.5-41.48-4 36a2.82 2.82 0 0 0 .85 2.41 3.28 3.28 0 0 0 2.45 1.07h1.25v.8h-16.5v-.89h1.34a5.92 5.92 0 0 0 5-2.32 5.35 5.35 0 0 0 1.07-2.76l7-48.8h.89l23.56 45.32 22.71-45.35h.8l7.22 49a5.49 5.49 0 0 0 2.06 3.57 6.2 6.2 0 0 0 4.01 1.29z" fill="#fff"/><path d="m518.75 467.89v-.09s0 .06 0 .09z" fill="#fff"/><path d="m518.74 467.8v.09s0-.06 0-.09z" fill="#fff"/><path d="m518.75 467.89v-.09s0 .06 0 .09z" fill="#fff"/><path d="m518.74 467.8v.09s0-.06 0-.09z" fill="#fff"/><path d="m220 474c0-162.92 133.75-295 298.73-295s298.75 132.08 298.75 295" fill="#6e43e8"/><path d="m728.88 312.48a39.21 39.21 0 0 0 -39.2-39.21h-341.87a39.21 39.21 0 0 0 -39.2 39.21v161.52h27.09v-45.13c0-30.64 24.6-55.47 54.89-55.47s54.85 24.83 54.88 55.47v45.13h19.61v-45.13c0-30.64 24.59-55.47 54.88-55.47s54.85 24.83 54.89 55.47v45.13h19.6v-45.13c0-30.64 24.6-55.47 54.89-55.47s54.85 24.83 54.88 55.47v45.13h24.66zm-393.18 40.73c0-30.67 24.57-55.54 54.89-55.54s54.88 24.87 54.88 55.54zm129.38 0c0-30.67 24.57-55.54 54.88-55.54s54.89 24.87 54.89 55.54zm129.37 0c0-30.67 24.57-55.54 54.89-55.54s54.88 24.87 54.88 55.54z" fill="#fff"/><path d="m518.74 467.8v.09s0-.06 0-.09z" fill="#fff"/><path d="m518.75 467.89v-.09s0 .06 0 .09z" fill="#fff"/></g></svg>