<svg id="Layer_1" data-name="Layer 1" xmlns="http://www.w3.org/2000/svg" viewBox="0 0 597.47 295"><defs><style>.cls-1{fill:#fff;}.cls-2{fill:#443266;}</style></defs><title>logo-no-text</title><path class="cls-1" d="M365.41,490.89v-.09h0S365.41,490.86,365.41,490.89Z" transform="translate(-90.42 -202)"/><path class="cls-1" d="M365.4,490.8v.09s0-.06,0-.09Z" transform="translate(-90.42 -202)"/><path class="cls-1" d="M365.41,490.89v-.09h0S365.41,490.86,365.41,490.89Z" transform="translate(-90.42 -202)"/><path class="cls-1" d="M365.4,490.8v.09s0-.06,0-.09Z" transform="translate(-90.42 -202)"/><path class="cls-2" d="M90.42,497c0-162.92,133.75-295,298.73-295S687.89,334.08,687.89,497" transform="translate(-90.42 -202)"/><path class="cls-1" d="M599.29,335.48a39.21,39.21,0,0,0-39.2-39.21H218.22A39.21,39.21,0,0,0,179,335.48V497h27.09V451.87h0c0-30.64,24.6-55.47,54.89-55.47s54.84,24.83,54.88,55.47h0V497h19.6V451.87h0c0-30.64,24.59-55.47,54.88-55.47s54.85,24.83,54.89,55.47h0V497h19.6V451.87h0c0-30.64,24.6-55.47,54.89-55.47s54.84,24.83,54.88,55.47h0V497h24.66ZM206.11,376.21c0-30.67,24.57-55.54,54.89-55.54s54.88,24.87,54.88,55.54Zm129.37,0c0-30.67,24.58-55.54,54.89-55.54s54.89,24.87,54.89,55.54Zm129.38,0c0-30.67,24.57-55.54,54.89-55.54s54.88,24.87,54.88,55.54Z" transform="translate(-90.42 -202)"/><path class="cls-1" d="M365.4,490.8v.09s0-.06,0-.09Z" transform="translate(-90.42 -202)"/><path class="cls-1" d="M365.41,490.89v-.09h0S365.41,490.86,365.41,490.89Z" transform="translate(-90.42 -202)"/></svg>