<svg height="824.82" viewBox="0 0 941.51 824.82" width="941.51" xmlns="http://www.w3.org/2000/svg" xmlns:xlink="http://www.w3.org/1999/xlink"><linearGradient id="a" gradientUnits="userSpaceOnUse" x1="432.56" x2="432.56" y1="817.82" y2="166.66"><stop offset="0" stop-color="#808080" stop-opacity=".25"/><stop offset=".54" stop-color="#808080" stop-opacity=".12"/><stop offset="1" stop-color="#808080" stop-opacity=".1"/></linearGradient><g fill="#6c63ff"><ellipse cx="482.08" cy="798.12" opacity=".1" rx="42.38" ry="356.13" transform="matrix(.13675301 -.99060518 .99060518 .13675301 -503.7 1128.97)"/><g transform="translate(-129.25 -37.59)"><path d="m149.6 606.48c6.41 15.45 14.82 30.26 26.59 41.62 14.34 13.84 32.15 21.39 51.22 25a154.27 154.27 0 0 0 17 2.2c15.07 1.16 30.5.39 45.3-1.22a535.59 535.59 0 0 0 106.7-22.83q8.55-2.76 17-5.81 12.75-4.57 25.27-9.81c34-14.21 69.15-32.33 105.32-26.71 17.53 2.73 34 11 51.57 13.46a92.21 92.21 0 0 0 36.84-2.62 126.59 126.59 0 0 0 17-5.87 193.44 193.44 0 0 0 35.32-20c26.5-18.52 50.28-41.48 78.18-57.52 30.76-17.69 64.81-26.1 99.5-32.37q8.48-1.53 17-2.92c16.05-2.65 32.14-5.1 48-8 15.28-2.82 30.83-6.27 44.13-14.75 9.49-6 17.47-14.43 24.79-23.26a277.49 277.49 0 0 0 34.52-53.22q.75-1.5 1.47-3c14.69-30.14 24.57-63 30.63-97 .18-1 .35-2 .52-3 5.7-33.33 7.78-67.79 7.15-102l-.06-3c-.39-16.89-1.44-33.71-3-50.29-1.12-11.66-2.62-23.76-8.66-33.56s-15.87-16.1-25.71-21.34c-43.3-23.07-84.81-29.49-131.39-18.31-7.48 1.79-14.93 3.72-22.38 5.72-5.67 1.52-11.34 3.09-17 4.67-39.13 10.91-78.16 22.52-118.61 26q-5.87.51-11.73.78-11.61.54-23.22.24a401.19 401.19 0 0 1 -59.44-6.12q-8.52-1.47-17-3.26c-24.42-5.09-48.59-11.88-72.42-19.38q-7.29-2.3-14.56-4.68c-10.92-3.57-21.84-7.21-32.78-10.75-32.66-10.57-65.48-20.26-99.25-24.16q-4.34-.49-8.68-.87c-2.77-.24-5.55-.43-8.32-.57-52.45-2.8-105.5 9.85-152 35.74q-8.66 4.82-17 10.24-11.57 7.53-22.43 16.2c-14.84 11.85-28.73 25.34-39.31 41.55-10.31 15.79-17 33.52-20.85 52.16-.21 1-.41 2-.59 3-5.65 30.09-3.89 62.36 2.45 92.51.67 3.16 1.38 6.33 2.12 9.49.23 1 .47 2 .71 3 6.84 28.51 15.58 56.94 13.3 86.09-.29 3.67-.75 7.31-1.35 10.91-.17 1-.34 2-.53 3-4.46 23.78-14.6 46.34-20.68 69.89a215.32 215.32 0 0 0 9.35 134.73z" opacity=".1"/><path d="m227.41 298.86h-78.61c.23 1 .47 2 .71 3h77.9v97h-65.95c-.17 1-.34 2-.53 3h66.48v271.23a154.27 154.27 0 0 0 17 2.2v-273.43h152v249.38q8.55-2.76 17-5.81v-243.57h219v217.89a126.59 126.59 0 0 0 17-5.87v-212h213v102.12q8.48-1.53 17-2.92v-99.22h151.46q.75-1.5 1.47-3h-152.93v-97h183.59c.18-1 .35-2 .52-3h-184.11v-102h191.23l-.06-3h-191.17v-117.78c-5.67 1.52-11.34 3.09-17 4.67v113.11h-208l-.52-.57 78.16-85.77q-11.61.54-23.22.24l-59.42 65.24v-71.36q-8.52-1.47-17-3.26v71.32l-86.93-95.39c-10.92-3.57-21.84-7.21-32.78-10.75l118.21 129.73-.52.57h-217v-154.45q-4.34-.49-8.68-.87c-2.77-.24-5.55-.43-8.32-.57v155.89h-152v-120.15q-8.66 4.82-17 10.24v109.91h-82.57c-.21 1-.41 2-.59 3h83.18zm169-102v102h-152v-102zm17 0h219v102h-219zm449 102h-213v-99.27l3-2.73h210zm-213 100v-97h213v97zm-236 0v-97h219v97zm-169-97h152v97h-152z" opacity=".1"/><path d="m667.19 225a12.9 12.9 0 0 1 4.38-2.49 29.44 29.44 0 0 1 11.14-1.21 49 49 0 0 1 8.17 1.14l125.64 35.56c2.37.67 4.7 1.46 7 2.34 8.1-3.17 31-12.35 33.51-15.63l9.84 2.88-16.42 24.51a2.25 2.25 0 0 1 -.16 4.18c-18.93 6.51-47.52-2.12-47.52-2.12l-109.77-31.36s-33.17-11.2-25.81-17.8z" opacity=".1"/></g><ellipse cx="812.37" cy="264.25" opacity=".1" rx="1.6" ry=".96" transform="matrix(.3126665 -.94986297 .94986297 .3126665 178.1 915.67)"/><ellipse cx="808.56" cy="263" opacity=".1" rx="1.6" ry=".96" transform="matrix(.3126665 -.94986297 .94986297 .3126665 176.68 911.19)"/><ellipse cx="801.25" cy="260.59" opacity=".1" rx="1.6" ry=".96" transform="matrix(.3126665 -.94986297 .94986297 .3126665 173.94 902.59)"/><ellipse cx="780.64" cy="254.54" opacity=".1" rx="1.6" ry=".96" transform="matrix(.3126665 -.94986297 .94986297 .3126665 165.52 878.85)"/><ellipse cx="777.01" cy="253.34" opacity=".1" rx="1.6" ry=".96" transform="matrix(.3126665 -.94986297 .94986297 .3126665 164.16 874.59)"/><ellipse cx="773.25" cy="252.46" opacity=".1" rx="1.6" ry=".96" transform="matrix(.3126665 -.94986297 .94986297 .3126665 162.42 870.41)"/><ellipse cx="769.47" cy="251.22" opacity=".1" rx="1.6" ry=".96" transform="matrix(.3126665 -.94986297 .94986297 .3126665 161 865.97)"/><ellipse cx="765.77" cy="250" opacity=".1" rx="1.6" ry=".96" transform="matrix(.3126665 -.94986297 .94986297 .3126665 159.61 861.61)"/><ellipse cx="762.4" cy="248.89" opacity=".1" rx="1.6" ry=".96" transform="matrix(.3126665 -.94986297 .94986297 .3126665 158.35 857.65)"/><ellipse cx="758.8" cy="247.7" opacity=".1" rx="1.6" ry=".96" transform="matrix(.3126665 -.94986297 .94986297 .3126665 157 853.41)"/><ellipse cx="755.02" cy="246.46" opacity=".1" rx="1.6" ry=".96" transform="matrix(.3126665 -.94986297 .94986297 .3126665 155.59 848.97)"/><ellipse cx="751.68" cy="245.36" opacity=".1" rx="1.6" ry=".96" transform="matrix(.3126665 -.94986297 .94986297 .3126665 154.33 845.04)"/><ellipse cx="732.91" cy="240.51" opacity=".1" rx="1.6" ry=".96" transform="matrix(.31 -.95 .95 .31 146.04 823.88)"/><ellipse cx="725.61" cy="238.11" opacity=".1" rx="1.6" ry=".96" transform="matrix(.3126665 -.94986297 .94986297 .3126665 143.31 815.29)"/><ellipse cx="721.93" cy="236.9" opacity=".1" rx="1.6" ry=".96" transform="matrix(.3126665 -.94986297 .94986297 .3126665 141.93 810.96)"/><ellipse cx="718.37" cy="235.72" opacity=".1" rx="1.6" ry=".96" transform="matrix(.3126665 -.94986297 .94986297 .3126665 140.6 806.78)"/><ellipse cx="714.86" cy="234.57" opacity=".1" rx="1.6" ry=".96" transform="matrix(.3126665 -.94986297 .94986297 .3126665 139.28 802.65)"/><ellipse cx="710.9" cy="233.26" opacity=".1" rx="1.6" ry=".96" transform="matrix(.3126665 -.94986297 .94986297 .3126665 137.8 797.98)"/><ellipse cx="729.14" cy="239.27" opacity=".1" rx="1.6" ry=".96" transform="matrix(.3126665 -.94986297 .94986297 .3126665 144.63 819.44)"/><ellipse cx="804.62" cy="261.7" opacity=".1" rx="1.6" ry=".96" transform="matrix(.3126665 -.94986297 .94986297 .3126665 175.2 906.55)"/><path d="m744.05 242.28h3.54v6.17h-3.54z" opacity=".1" transform="matrix(-.97084213 -.23971974 .23971974 -.97084213 1281.86 624.71)"/><path d="m703.55 230.67h3.54v6.17h-3.54z" opacity=".1" transform="matrix(-.97084213 -.23971974 .23971974 -.97084213 1204.83 592.14)"/><path d="m557.55 185.21 4.57 1.2-2.28 3.44-6.77-1.68z" opacity=".1"/><path d="m671.57 222.55 9.87 2.57 3.76-2.32-2.49-1.46a29.44 29.44 0 0 0 -11.14 1.21z" opacity=".1" transform="translate(-129.25 -37.59)"/><path d="m866.87 247.53-16.42 24.59-26.82-11.89s30.37-11.58 33.37-15.58z" opacity=".1" transform="translate(-129.25 -37.59)"/><path d="m618.51 213.63 43.33 11.7 2.56 5.12z" opacity=".1"/><g transform="translate(-129.25 -37.59)"><path d="m317.5 126.62h1.31a3.24 3.24 0 0 1 -1.6-2.62c0-2.06 2.53-3.75 5.62-3.75h39.42c3.09 0 5.62 1.69 5.62 3.75 0 2.07-2.53 3.76-5.62 3.76h-1.32a3.27 3.27 0 0 1 1.61 2.62c0 1.76-1.84 3.25-4.31 3.65h11.35c3.09 0 5.63 1.69 5.63 3.75s-2.54 3.76-5.63 3.76h-39.42c-3.09 0-5.62-1.69-5.62-3.76 0-1.76 1.84-3.24 4.3-3.64h-11.34c-3.1 0-5.63-1.69-5.63-3.76s2.53-3.76 5.63-3.76z" opacity=".1"/><path d="m744.66 162.39h1.34a3.26 3.26 0 0 1 -1.6-2.62c0-2.07 2.53-3.76 5.62-3.76h39.42c3.09 0 5.62 1.69 5.62 3.76 0 2.06-2.53 3.75-5.62 3.75h-1.32a3.28 3.28 0 0 1 1.61 2.62c0 1.77-1.84 3.25-4.3 3.65h11.34c3.1 0 5.63 1.69 5.63 3.76s-2.53 3.75-5.63 3.75h-39.44c-3.1 0-5.63-1.69-5.63-3.75 0-1.76 1.84-3.25 4.3-3.65h-11.34c-3.1 0-5.63-1.69-5.63-3.76s2.53-3.75 5.63-3.75z" opacity=".1"/><path d="m257 315.45h1.32a3.26 3.26 0 0 1 -1.61-2.62c0-2.07 2.53-3.76 5.62-3.76h39.42c3.09 0 5.62 1.69 5.62 3.76 0 2.06-2.53 3.75-5.62 3.75h-1.32a3.26 3.26 0 0 1 1.61 2.62c0 1.76-1.84 3.25-4.3 3.65h11.34c3.1 0 5.63 1.69 5.63 3.76s-2.53 3.75-5.63 3.75h-39.37c-3.1 0-5.63-1.69-5.63-3.75 0-1.77 1.84-3.25 4.31-3.65h-11.39c-3.09 0-5.63-1.69-5.63-3.76s2.63-3.75 5.63-3.75z" opacity=".1"/></g></g><path d="m686.15 334c-1-6.29-7.28-17.79-7.28-17.79l-9.07-15.4s-3.56-4.21-3.23-5.57-4.21-3.61-4.21-3.61-2.59-3.38-2.75-5-14.73-13.86-14.73-13.86-5-4.19-3.88-18.36h-11.49a61 61 0 0 0 -8.75.87l-16.76-19.57s-13.19-10.93-24.85-17.38c0-.1 0-.2 0-.3a35.27 35.27 0 0 0 -6.41-20.4l-.12-.16a15.6 15.6 0 0 0 5.2-2.4 6.4 6.4 0 0 0 2.32-2.85c1.87-4.8-5.51-7-8.88-8.73-6.83-3.52-12.51-8.76-19.48-12a52 52 0 0 0 -44.33.28c-6.81 3.37-12.74 8.21-18.86 12.7-9.59 7-5.9 13.45-13.4 22.67s-11.74 22.21-7.05 33.11c2.76 6.4 8.25 11.31 14.28 14.85s-1.33 5.88 5.13 8.56c1.52.64 3.18 1.43 3.8 3a6.07 6.07 0 0 1 -.17 3.94c-1.19 4.25-2.77 8.83-1.93 13-4 1.87-6.75 2.91-6.75 2.91-8.3 2.9-9.71 8.77-9.71 8.77s1.51 5.2-1.83 7.78-1.94 9.66-1.94 9.66-4.53 10.2-3.36 11.7a28.47 28.47 0 0 1 2.39 4.09s-3.78 3-1.84 7.3 0 8.91 0 8.91 1 2.37-.75 3.66 0 11.11 0 11.11a5.83 5.83 0 0 1 -1.41 3.6c-1.46 1.72 0 18.47 0 18.47a5.62 5.62 0 0 1 -1.78 2.1c-1 .48-3.88 16.27-3.07 17.07s-12.2 38.77-12.2 38.77.32 6.6-1.46 7.73-2.1 8.7-2.1 8.7.8 6.76-2.43 8.05-3.89 24.17-3.89 24.17-4.37 11.76-7 13.69a33.19 33.19 0 0 0 9.51 8l-.4 1.06c-2.19 6-5.17 15.3-5.56 23a50.72 50.72 0 0 0 -7.06 8.46s1.16 1 2.57 2.2l-33.08 40.84c-13.52-19.37-20.86-12.19-20.86-12.19l-5 1.37c-.77.18-3.76.67-4-2.68a9.38 9.38 0 0 0 -.72-2.88 7.28 7.28 0 0 0 -2.1-2.88 4.51 4.51 0 0 0 -4.63-.67c-4.2 1.62-59.46 11-59.46 11s-17.25 2.9-33.11 23.84a268.6 268.6 0 0 1 -30.1 33.83l-43.12 51.19s-21.76 29.41-11.2 28.88c-2.57 6.31-.13 12.68-.13 12.68l42.72 54.38a8.74 8.74 0 1 0 14.36-6.66l63.77-29.56a8.72 8.72 0 1 0 13.34-11l24.14-24.23s71.53-75.07 77-86.35c3.11-6.38-2.36-15.14-7.69-21.53l45.64-59 1.64.74 9.18-9.37c7-5.62 1.07-12.86 1.07-12.86-2.09-1.89-6.07-1.6-10.57-.32.42-1.8.8-3.55 1.12-5.19.09-.44.18-.87.26-1.3a42.06 42.06 0 0 0 8.56-.87s1-21.1 3.88-29.48l8.58-42.69s5.18-18.2 7.12-28.19 10.47-48.33 10.47-48.33c1.39-4.19 2 7.09 2 7.09s2.81 2.9 2.16 4.4.54 10.1.54 10.1 1.51 5.15.44 6.23a2.69 2.69 0 0 0 -.49.88c-1 2.3-2.33 9.37-2.33 9.37l-3.79 14.05-.63.51a19.6 19.6 0 0 0 -5.45 7.82c-1.15 2.68-1.81 5.22-2.49 6.84a4.82 4.82 0 0 1 -.58 1 7.85 7.85 0 0 0 -1 1.77 35.61 35.61 0 0 0 -1.94 6.87l.45.29c0 .09-.07.19-.11.28l-.19.48v.06c-.41 1-.79 2.05-1.17 3.09l-.12.33c-.35 1-.69 2-1 2.95-.05.17-.11.34-.16.51-.31.93-.6 1.86-.88 2.77l-.18.58c-.26.87-.52 1.73-.76 2.57 0 .1-.06.21-.09.3a84.59 84.59 0 0 0 -3.24 22.13c-.23 17.66-.4 53.31 1.78 58.13.14.32.29.69.43 1.1 2.7 7.91 4.75 31.76 4.75 31.76a38.72 38.72 0 0 0 4.51 2.67c.05.45.1.9.16 1.37 1.15 9.81 2.77 23.08 3.31 24.42.87 2.15 2.81 15 2.81 15s-1.52 5.79-2.59 11.16-15.11 20.2-15.11 20.2c-17.89 14.84-35.8 67.27-35.8 67.27-3.57 7.68-7.51 10.52-10.41 11.5-19.33-.72-20.23 15-20.23 15l-12.2 23.41 3.09 2.19 1.45 1 12.41-14.39s0 16.43-2.27 20.4c-1.54 2.7-1.79 7.65-1.79 10.55 0 1.36.06 2.27.06 2.27s3.78 8 20.39 17.9c7.46 4.43 11.81 3.68 14.34 1.49 3.1-2.68 3.47-7.5 3.47-7.5l-7-11.89c-.35.15-.69.26-1 .39 0-.41 0-.83 0-1.28.44-10.5 9.88-32.65 9.88-32.65s9.06-23.85 16.61-31.15c6.59-6.37 33.05-46.59 39.69-56.74v.34c0 .49.07 1 .12 1.42 1 10.87 4 15.67 4 15.67s3.45 44 4.09 55.2c.41 7-1.3 11.73-2.64 14.28l-.07.12c-.07 0-6.89 3.58-7.53 10.52s3.23 13.53 3.23 13.53 8.81 21.99 8.49 28.31h5.18l-.86-19.12.08.1c.94 1.25 10.19 13.66 10.5 19.87 0 0 2.34 6.39 2.27 8.14a.66.66 0 0 1 0 .14c-.22 1.5 8.2 8.59 20.4 7.19s14.34-3.11 14.34-3.11.14-.39.32-1c.61-2.3 1.58-7.91-2.47-10.68-5.07-3.47-15.61-13.2-16.06-13.61-1.73-14.39-7.24-33.94-7.24-33.94v-29.48s2.49-67.45.77-78.83a60.06 60.06 0 0 1 0-19.55s7.55-21.26 6-23.63 3.23-10.74 3.23-10.74l9.07-25.43.53-1.48c1.48-.56 2.45-.93 2.8-1 3-.64 0-5.48 0-5.48s9.62-40.91 8.64-48.33 2.27-37.85 2.27-37.85l1.55-12.62.14-1.13c1 1.24 1.7 2 1.7 2 10.35-1.72 19.2-30 16.93-31.58s-8.63-22.23-8.63-22.23c-10.14-14.07-1-43.28-1-43.28s9.28-23.52 9.17-27.39 2.16-4 2.16-4v-.11c8.52 1.82 38.11 8.11 39.63 8.42 1.78.36 5.34.6 8.9 2.05s26.55-2.05 26.55-2.05 14.57-1.32 13.6-7.58zm-229 197.1-7.46 9.48 1.11.5-45.37 56.56c-2.42-2.53-4.23-4.12-4.23-4.12-.46-.81-.92-1.58-1.37-2.34l33.7-43a3.51 3.51 0 0 0 .62.4l2.67-3.18a7.39 7.39 0 0 0 2.52 1.46c6.33 2.17 11-6.08 14.2-15.81a8.72 8.72 0 0 1 3.61.03zm101.47-272.89c0-.11 0-.22 0-.33zm0-.58a2.3 2.3 0 0 1 0 .23 1.77 1.77 0 0 0 .02-.23zm62.13 44.13s-1.46-4.51-2.43-4.51a14.06 14.06 0 0 1 -3.56-1.29 2.86 2.86 0 0 1 -3.56-2.21c-1-3-7.18-5.36-7.18-5.36s-9.06-3.76-9.82-6.88-13.7-6.55-13.7-6.55.87-1.28-4.64-3.11a20.44 20.44 0 0 1 -5.32-3.25 122.9 122.9 0 0 1 -11.91-11 32.3 32.3 0 0 1 1.17-6.91c.14-.51.29-1 .46-1.5a32.31 32.31 0 0 0 7.1-4.76l6.72 9.75a2.25 2.25 0 0 0 3.12.58l5.36-3.65a20.21 20.21 0 0 0 9 1.33l11.93 14.39a11.69 11.69 0 0 0 .51 4.84l27.73 32.87c-.73-.2-10.96-2.78-10.96-2.78z" fill="url(#a)" transform="translate(-129.25 -37.59)"/><path d="m626.22 254.65s-30.53.32-25.33 17.23l11.65 6.76 11.61-2.36 5.45-9.63z" fill="#65617d" transform="translate(-129.25 -37.59)"/><path d="m626.22 254.65s-30.53.32-25.33 17.23l11.65 6.76 11.61-2.36 5.45-9.63z" opacity=".1" transform="translate(-129.25 -37.59)"/><path d="m559.72 225.18c8.37 30.44 28.78 27.47 28.78 27.47l13.09 15.85 1.93 2.46 4.18 5.32 18.52-10.52-3.69-4.34-21.64-25.42s-49.54-41.25-41.17-10.82z" fill="#fbbebe" transform="translate(-129.25 -37.59)"/><rect fill="#3a3768" height="4.65" rx=".28" transform="matrix(-.82471888 .5655429 -.5655429 -.82471888 1019.14 73.86)" width=".56" x="556.64" y="231.36"/><rect fill="#3a3768" height="1.53" rx=".16" transform="matrix(-.82471888 .5655429 -.5655429 -.82471888 1033.71 39.44)" width=".32" x="569.39" y="217.96"/><rect fill="#3a3768" height="2.66" rx=".18" transform="matrix(-.82 .57 -.57 -.82 1038.75 43.43)" width=".36" x="571.26" y="220.17"/><rect fill="#3a3768" height="2.69" rx=".17" transform="matrix(-.82471888 .5655429 -.5655429 -.82471888 1044.16 47.7)" width=".34" x="573.32" y="223.14"/><rect fill="#3a3768" height="38.36" rx="2.24" transform="matrix(-.82471888 .5655429 -.5655429 -.82471888 1042.51 69.42)" width="18.87" x="559.86" y="215.91"/><path d="m554.65 223.08a.68.68 0 0 1 .94.18l.08.11a.68.68 0 0 0 .94.18l6.61-4.53a.68.68 0 0 0 .17-.94l-.08-.11a.68.68 0 0 1 .18-.94l1.28-.89a1.3 1.3 0 0 1 1.8.34l19.1 27.86a1.29 1.29 0 0 1 -.34 1.79l-11.51 7.87a1.29 1.29 0 0 1 -1.79-.34l-19.11-27.86a1.29 1.29 0 0 1 .34-1.79z" fill="#6c63ff" transform="translate(-129.25 -37.59)"/><rect fill="#e6e8ec" height=".54" rx=".27" transform="matrix(-.82471888 .5655429 -.5655429 -.82471888 1016.49 47.61)" width="2.64" x="558.35" y="219.88"/><circle cx="428.75" cy="183.7" fill="#e6e8ec" r=".3"/><path d="m503.3 662.06c0 .6.09 1.18.14 1.76 1 10.86 3.95 15.66 3.95 15.66s3.43 44 4.07 55.18c.41 7-1.3 11.72-2.63 14.27a12.7 12.7 0 0 1 -1.44 2.27l-2.15 4.72 10.09 20.18 11.81 19.54 8.16 10.73s6 .86 7.3 0 6.43 0 6.43 0l4.73-7.3-5.3-7.17-2-2.7c-1.72-14.39-7.2-33.93-7.2-33.93v-29.41s2.48-67.41.76-78.8a60.28 60.28 0 0 1 0-19.53s7.51-21.26 6-23.62 3.22-10.74 3.22-10.74l9-25.41.52-1.49-2-4.87-50.66-6.4s.4 4 .84 10.35v.14c.26 3.68.52 8.16.73 13.16.7 16.82.76 39.4-2.43 56.65a108.44 108.44 0 0 0 -1.94 26.76z" fill="#fbbebe" transform="translate(-129.25 -37.59)"/><path d="m503.44 663.82 2.66-4.09a89.9 89.9 0 0 1 16.31-12.45c9.24-5.37 11.38-18 11-19.75s1.29-18 1.29-18v-41.26l-27.71-3c1.1 16.07 2.45 47.51-1.7 70-2.29 12.2-2.48 21.61-1.85 28.55z" opacity=".1" transform="translate(-129.25 -37.59)"/><path d="m417 766.87 2.15 19.75 10.51 6.22s9.67 1.08 7.95-7.51a12.59 12.59 0 0 1 -.16-2.79c.43-10.49 9.82-32.63 9.82-32.63s9-23.83 16.53-31.14c6.56-6.36 32.89-46.56 39.5-56.71l1.51-2.33a90.19 90.19 0 0 1 16.32-12.45c9.23-5.37 11.38-18 11-19.75s1.28-18 1.28-18v-41.26l-26.42-2.82-23.82-2.55s.53 4.66 1.21 10.59c1.15 9.8 2.77 23.07 3.3 24.41.87 2.15 2.8 15 2.8 15s-1.51 5.79-2.58 11.16-15 20.19-15 20.19c-17.82 14.81-35.64 67.19-35.64 67.19-4.69 10.14-10 11.86-12.76 12a5.45 5.45 0 0 1 -1.84-.17l-3.87 7.09z" fill="#fbbebe" transform="translate(-129.25 -37.59)"/><path d="m505.24 755.92 10.09 20.18 11.81 19.54 8.16 10.73s6 .86 7.3 0 6.43 0 6.43 0l4.73-7.3-5.3-7.17c1.39 3.2 2.53 7.19-.28 7.38-4.72.33-14.49 4.3-20.07-9.12s-13-19.43-13-19.43l-5.91-14.38-.38-7.42a12.7 12.7 0 0 1 -1.44 2.27z" opacity=".1" transform="translate(-129.25 -37.59)"/><path d="m504.49 773.09s8.8 21.9 8.48 28.24h5.15l-.86-19.12.08.11c.94 1.25 10.14 13.65 10.45 19.86 0 0 2.33 6.38 2.26 8.13a.61.61 0 0 1 0 .14c-.22 1.5 8.15 8.59 20.29 7.19s14.27-3.11 14.27-3.11.14-.39.32-1c.6-2.3 1.57-7.9-2.46-10.67-5.05-3.48-15.58-13.24-16-13.61.27.48 6.32 11 1.7 11.35s-14.49 4.3-20.07-9.12-13-19.43-13-19.43l-5.91-14.38-.44-8.59s-6.86 3.54-7.5 10.52 3.24 13.49 3.24 13.49z" fill="#3f3d56" transform="translate(-129.25 -37.59)"/><path d="m511.9 781.89c.61 5.14 2.12 14.6 2.9 19.44h3.32l-.86-19.12.08.11-.29-.85s-6.05-6.66-5.15.42z" opacity=".1" transform="translate(-129.25 -37.59)"/><path d="m530 810.45c-.22 1.5 8.15 8.59 20.29 7.19s14.27-3.11 14.27-3.11.14-.39.32-1c-7.56.09-27.74 0-34.87-3.19a.61.61 0 0 1 -.01.11z" opacity=".1" transform="translate(-129.25 -37.59)"/><path d="m417 766.87 2.15 19.75 10.51 6.22s9.67 1.08 7.95-7.51a12.59 12.59 0 0 1 -.16-2.79c-16.23 6-17.87-9.88-17.87-9.88l2.9-43.26a9.46 9.46 0 0 1 1.94-5.95 5.45 5.45 0 0 1 -1.84-.17l-3.87 7.09z" opacity=".1" transform="translate(-129.25 -37.59)"/><path d="m394.56 761.39 3.07 2.2 1.44 1 12.35-14.38s0 16.42-2.26 20.39c-1.53 2.7-1.77 7.65-1.77 10.55 0 1.36.05 2.27.05 2.27s3.76 8 20.29 17.89c7.42 4.43 11.75 3.67 14.26 1.49 3.09-2.68 3.45-7.5 3.45-7.5l-7-11.88c-17.18 7-18.89-9.49-18.89-9.49l2.9-43.26c.21-6.55 4.36-7.71 4.36-7.71-19.25-.74-20.14 15-20.14 15z" fill="#3f3d56" transform="translate(-129.25 -37.59)"/><path d="m268.39 726 1.43 1.02 12.35-14.38-1.4-4.19z" opacity=".1"/><g transform="translate(-129.25 -37.59)"><path d="m407.39 781.17c0 1.36.05 2.27.05 2.27s3.76 8 20.29 17.89c7.42 4.43 11.75 3.67 14.26 1.49-7.53-2.33-25.49-8.95-34.6-21.65z" opacity=".1"/><path d="m437 546.91c9.55 3.29 15.28-17.37 18-30.85 1.26-6.29 1.85-11 1.85-11h-17.58s-1 2.37-2.37 6c-3.9 10.66-10.35 32.24.1 35.85z" fill="#fbbebe"/><path d="m514.68 268.13 12 29.19v25.12c0 .65 29.84 9 29.84 9l7.73-19.32s2.36-22.76-6.22-41.66a28.11 28.11 0 0 1 -1.17-19.57q.21-.76.45-1.5a49.28 49.28 0 0 1 9.52-16.5s-20.47-6.79-34.53-8.17c-8.85-.86-15.18.42-12.27 6.88a28.63 28.63 0 0 1 2.32 13c0 .4 0 .81-.08 1.21-.88 12.04-7.59 22.32-7.59 22.32z" fill="#fbbebe"/><path d="m520.06 231.62a28.63 28.63 0 0 1 2.32 13c0 .4 0 .81-.08 1.21a.27.27 0 0 0 .08.07 31.7 31.7 0 0 0 18.21 7.91c.93.09 1.88.13 2.83.13a31.25 31.25 0 0 0 13.47-3q.21-.76.45-1.5a49.28 49.28 0 0 1 9.52-16.5s-20.47-6.79-34.53-8.17c-8.85-.89-15.18.39-12.27 6.85z" opacity=".1"/><path d="m510.67 218.3a35 35 0 0 0 11.71 26.32 31.75 31.75 0 0 0 18.21 7.9c.93.09 1.88.13 2.83.13a31.38 31.38 0 0 0 13.92-3.24 34.51 34.51 0 0 0 18.84-31.11 35.3 35.3 0 0 0 -6.39-20.39 32.24 32.24 0 0 0 -26.37-14c-18.08.03-32.75 15.41-32.75 34.39z" fill="#fbbebe"/><path d="m555.48 329.31s-20-18.25-25.55-34.78a183.18 183.18 0 0 0 -13.31-29.84l1.48-3.09s8.18 21.77 14.19 24.34 20 17.39 21.26 27.7l.86-31.35 1.35-20.69s10.24 21.77 11.1 31.86-.22 28.34-3.44 32.2a10.49 10.49 0 0 1 -7.94 3.65z" fill="#6c63ff"/><path d="m513.62 261 .14-.13z" fill="none" stroke="#0ff" stroke-miterlimit="10"/><path d="m483.12 562.9s.53 4.66 1.21 10.59c7.08 3.56 15.15 5 23.34 5.12a108.3 108.3 0 0 0 25.69-3.06 189.11 189.11 0 0 0 24.92-7.79l.52-1.49-2-4.87-50.7-6.4s.4 4 .84 10.35v.14z" opacity=".1"/><path d="m474.54 536.6c.14.32.29.7.43 1.11 2.69 7.9 4.72 31.74 4.72 31.74 28.34 19.65 78.9-3.54 81.89-4.19s0-5.47 0-5.47 9.57-40.9 8.61-48.31 2.25-37.84 2.25-37.84l1.56-12.64 4.29-35.87-32.85-7.08s-40.19 4.08-53 8.85a17.76 17.76 0 0 0 -1.75.74c-3.93 1.94-7.44 8.35-10.27 15.55-1.73 4.37-3.2 9-4.38 13.16a84.85 84.85 0 0 0 -3.22 22.12c-.28 17.69-.45 53.31 1.72 58.13z" fill="#3f3d56"/><path d="m474.54 536.6c.14.32.29.7.43 1.11 1.84-12.74 3.58-51.13 3.22-63.69-.43-15 15.46-46.81 15.46-46.81l-1.26-.27a17.76 17.76 0 0 0 -1.75.74c-6.32 3.12-11.54 17.81-14.64 28.71a84.86 84.86 0 0 0 -3.23 22.12c-.23 17.65-.4 53.28 1.77 58.09z" opacity=".1"/><path d="m480.37 443.23c.82.54 17.44 11.24 45.37 23.17 28.67 12.23 31.78-37.47 31.78-37.47a51.37 51.37 0 0 1 5.48 13.85c1.59 6.35 7.83 14.47 11 18.26l4.29-35.87-32.85-7.08s-40.19 4.08-53 8.85a17.76 17.76 0 0 0 -1.75.74c-3.98 1.94-7.49 8.32-10.32 15.55z" opacity=".1"/><path d="m463.8 336c1.93 4.29 0 8.91 0 8.91s28.45 24.58 29.85 20.39 2 7.09 2 7.09 2.8 2.9 2.16 4.4.53 10.09.53 10.09 1.5 5.15.43 6.23-2.68 10-2.68 10l-3.84 14.26-.67.56c-6 4.93-6.77 13.52-8.49 15.67s-2.78 8.37-2.78 8.37 16.74 10.95 45.4 23.19 31.78-37.47 31.78-37.47a51.37 51.37 0 0 1 5.51 13.8c2.15 8.59 12.78 20.4 12.78 20.4 10.31-1.72 19.1-29.95 16.85-31.56s-8.63-22.22-8.63-22.22c-10.09-14.06-1-43.27-1-43.27s9.23-23.51 9.12-27.37 2.15-4 2.15-4l6.55-44.87s-9-3.76-9.77-6.88-13.64-6.54-13.64-6.54.87-1.29-4.61-3.12a20.19 20.19 0 0 1 -5.3-3.24 124.33 124.33 0 0 1 -11.85-11s-.55 12.78 2.12 20.17 4.62 29.22 4.83 30.83-7.73 18.46-7.73 18.46l-4.21-5.77c-6.64-9.08-18.87-25.76-19.72-26.54-1.19-1.07-11.48-29.78-12.91-33.36-.53-1.31-1.27-1.73-2-1.74a3 3 0 0 0 -1.61.52 5.5 5.5 0 0 0 -.71.52l-.25.69-.06.14a15.28 15.28 0 0 1 -.76 1.72 0 0 0 0 0 0 0c-6.9 13.54-32.64 23.23-32.64 23.23-8.26 2.9-9.66 8.77-9.66 8.77s1.5 5.19-1.82 7.77-1.93 9.66-1.93 9.66-4.51 10.2-3.35 11.7a27.57 27.57 0 0 1 2.38 4.08s-3.75 3-1.82 7.33z" fill="#65617d"/><path d="m547.21 341.87s43.91 6.87 41.87-12c-1.86-17.21-18-53.41-20.86-59.71a125 125 0 0 1 -11.86-11s-.54 12.78 2.12 20.17 4.62 29.21 4.83 30.82-7.73 18.47-7.73 18.47z" opacity=".1"/><path d="m545.92 340.59s43.91 6.86 41.87-12c-1.86-17.21-18-53.41-20.86-59.71a124.33 124.33 0 0 1 -11.85-11s-.55 12.78 2.11 20.17 4.62 29.22 4.84 30.83-7.73 18.46-7.73 18.46z" opacity=".1"/><path d="m546.57 340.59s43.9 6.86 41.86-12c-1.85-17.21-18-53.41-20.86-59.71a124.33 124.33 0 0 1 -11.85-11s-.55 12.78 2.12 20.17 4.62 29.22 4.83 30.83-7.73 18.46-7.73 18.46z" fill="#65617d"/><path d="m511.39 264.76c0 .13.07 2 .16 4.88.17 5.56.44 15 .58 23.89.16 10.3.16 19.78-.34 21.4-1.18 3.76 4.61 13.1 4.61 13.1l28.88 13.84 7.77-12.35-3.61-6.73c-6.64-9.08-18.87-25.76-19.72-26.54-.38-.34-1.7-3.52-3.35-7.8-3.52-9.09-8.59-23.13-9.56-25.56a3.61 3.61 0 0 0 -2-1.75 1.77 1.77 0 0 0 -1.61.53 5.65 5.65 0 0 0 -1 1.34v.05a10.26 10.26 0 0 0 -.74 1.67z" opacity=".1"/><path d="m513.33 263.47c0 .12.07 2 .15 4.87.17 5.56.44 15 .58 23.89.17 10.3.17 19.78-.34 21.4-1.18 3.76 4.62 13.1 4.62 13.1l28.87 13.85 7.79-12.35-3.61-6.73c-6.64-9.08-18.86-25.76-19.72-26.54-.38-.34-1.69-3.52-3.35-7.8-3.52-9.08-8.59-23.13-9.56-25.56a3.6 3.6 0 0 0 -2-1.74 1.72 1.72 0 0 0 -1.61.52 5.55 5.55 0 0 0 -1 1.35 10.19 10.19 0 0 0 -.74 1.68z" opacity=".1"/><path d="m512.68 263.47c0 .12.07 2 .16 4.87.17 5.56.43 15 .58 23.89.16 10.3.16 19.78-.35 21.4-1.17 3.76 4.62 13.1 4.62 13.1l28.88 13.85 7.76-12.36s-1.37-2.58-3.6-6.73c-6.64-9.08-18.87-25.76-19.72-26.54-.38-.34-1.7-3.52-3.35-7.8-3.52-9.08-8.59-23.13-9.56-25.56a3.58 3.58 0 0 0 -2-1.74 1.74 1.74 0 0 0 -1.61.52 5.27 5.27 0 0 0 -1 1.35 10.19 10.19 0 0 0 -.74 1.68 0 0 0 0 0 -.07.07z" fill="#65617d"/></g><ellipse cx="421.29" cy="309.33" opacity=".1" rx="2.42" ry="4.19"/><ellipse cx="421.29" cy="308.68" fill="#6c63ff" rx="2.42" ry="4.19"/><ellipse cx="427.5" cy="354.25" opacity=".1" rx="2.42" ry="4.19"/><ellipse cx="425.09" cy="330.47" opacity=".1" rx="2.42" ry="4.19"/><ellipse cx="429.92" cy="374.22" opacity=".1" rx="2.42" ry="4.19"/><ellipse cx="427.5" cy="353.61" fill="#6c63ff" rx="2.42" ry="4.19"/><ellipse cx="425.09" cy="329.83" fill="#6c63ff" rx="2.42" ry="4.19"/><ellipse cx="429.92" cy="373.58" fill="#6c63ff" rx="2.42" ry="4.19"/><path d="m507.05 293.94c.63-.48 3.55-1.14 6.37-1.7s5.7-1 5.7-1a17.13 17.13 0 0 1 8.54-4c-3.52-9.08-8.59-23.13-9.56-25.56a3.58 3.58 0 0 0 -2-1.74 1.74 1.74 0 0 0 -1.61.52 5.27 5.27 0 0 0 -1 1.35l-.59 6.57-.16 1.76s-4.67 2.25-3.7 6-3.28 18.77-1.99 17.8z" fill="#6c63ff" transform="translate(-129.25 -37.59)"/><path d="m555.76 262.25s15.88 22.83 15.71 27.34-2.57 0-2.57 0-6.71-19.93-14.54-4.83z" opacity=".1" transform="translate(-129.25 -37.59)"/><path d="m555.76 261.6s15.88 22.84 15.71 27.35-2.57 0-2.57 0-6.71-19.93-14.54-4.84z" fill="#6c63ff" transform="translate(-129.25 -37.59)"/><path d="m598.53 291 2.36-2.32s6.17 2.32 7.11 5.32 3.54 2.22 3.54 2.22a14.07 14.07 0 0 0 3.54 1.28c1 0 2.42 4.51 2.42 4.51s10.14 2.58 11 2.74 40.57 37.07 40.57 37.07-22.86 3.51-26.4 2.06-7.09-1.7-8.86-2.06-41.7-8.89-41.7-8.89z" fill="#65617d" transform="translate(-129.25 -37.59)"/><path d="m603.52 271 4.18 5.32 18.52-10.52-3.69-4.34c-3.3 5.01-9.18 10.4-19.01 9.54z" opacity=".1" transform="translate(-129.25 -37.59)"/><path d="m663.1 339.83 5.95 2s14.5-1.32 13.53-7.6-7.25-17.78-7.25-17.78l-9-15.39s-3.55-4.22-3.22-5.57-4.19-3.61-4.19-3.61-2.58-3.38-2.74-5-14.66-13.88-14.66-13.88-5-4.19-3.87-18.36h-11.43s-5.25 21.1-25.33 17.23l27.59 32.85z" fill="#65617d" transform="translate(-129.25 -37.59)"/><path d="m436.9 511a35.65 35.65 0 0 0 18.08 5c1.26-6.29 1.85-11 1.85-11h-17.56s-1.04 2.41-2.37 6z" opacity=".1" transform="translate(-129.25 -37.59)"/><path d="m468.9 340.59-5.1 4.29s1 2.36-.74 3.65 0 11.11 0 11.11a5.84 5.84 0 0 1 -1.4 3.59c-1.45 1.72 0 18.47 0 18.47a5.58 5.58 0 0 1 -1.77 2.09c-1 .48-3.87 16.27-3.06 17.07s-12.24 38.81-12.24 38.81.32 6.6-1.45 7.73-2.09 8.69-2.09 8.69.8 6.76-2.42 8.05-3.86 24.16-3.86 24.16-4.35 11.75-6.93 13.68c0 0 12.24 16.75 35.91 11.92 0 0 1-21.1 3.86-29.47l8.54-42.67s5.15-18.2 7.08-28.18 10.42-48.31 10.42-48.31v-13.68z" fill="#65617d" transform="translate(-129.25 -37.59)"/><ellipse cx="314.54" cy="419.79" opacity=".1" rx="1.13" ry="2.25"/><ellipse cx="310.03" cy="438.95" opacity=".1" rx="1.13" ry="2.25"/><ellipse cx="306.65" cy="456.5" opacity=".1" rx="1.13" ry="2.25"/><ellipse cx="312.28" cy="429.45" opacity=".1" rx="1.13" ry="2.25"/><ellipse cx="307.77" cy="448.13" opacity=".1" rx="1.13" ry="2.25"/><ellipse cx="314.54" cy="419.15" fill="#6c63ff" rx="1.13" ry="2.25"/><ellipse cx="310.03" cy="438.31" fill="#6c63ff" rx="1.13" ry="2.25"/><ellipse cx="306.65" cy="455.86" fill="#6c63ff" rx="1.13" ry="2.25"/><ellipse cx="312.28" cy="428.81" fill="#6c63ff" rx="1.13" ry="2.25"/><ellipse cx="307.77" cy="447.49" fill="#6c63ff" rx="1.13" ry="2.25"/><g transform="translate(-129.25 -37.59)"><path d="m525.44 371.61s-17.4-3-22.72 0 22.72 0 22.72 0z" opacity=".1"/><path d="m513.74 388.62s-9-14.65-11.69-10 11.69 10 11.69 10z" opacity=".1"/><path d="m471.64 404.89c-.48.48-19.65 22.38-19.48 23.83s19.48-23.83 19.48-23.83z" opacity=".1"/><path d="m643.61 327.27c-.16.49-5.16 10.47-1.85 11.6s1.85-11.6 1.85-11.6z" opacity=".1"/><path d="m628.64 313.42s-7.57 2.74-8.86 4 8.86-4 8.86-4z" opacity=".1"/><path d="m654.24 306c-3.54-.16-16.1-3.55-16.59-2.42s16.59 2.42 16.59 2.42z" opacity=".1"/><path d="m522.38 244.62c-.53 12.52-7.7 23.51-7.7 23.51l12 29.19v8.49c8.16.86 16.76-.91 22.7-6.46-4.71-1.54-7.58-6.22-9.77-10.67a123.53 123.53 0 0 1 -6.53-16.16c-1.2-3.71-1.82-8.65 1.48-10.74 1.51-1 3.51-1 4.91-2.12 1.81-1.45 1.93-4.2 1.31-6.43-.07-.24-.14-.48-.22-.71-1.46-4.34-4.9-7.77-7-11.87a21.46 21.46 0 0 1 -1.27-15.91 19.86 19.86 0 0 1 2.31-5 21.43 21.43 0 0 1 18.57-9.64c1.87.08 4.16.2 5.11-1.4.74-1.22.21-2.8.45-4.21.71-4.3 6-5.25 11-6.59a32.24 32.24 0 0 0 -26.37-14c-18.08 0-32.75 15.38-32.75 34.36a35 35 0 0 0 11.77 26.36z" opacity=".1"/><path d="m557.48 204.5c-.24 1.41.29 3-.44 4.22-1 1.59-3.25 1.47-5.11 1.39a21 21 0 0 0 -19.62 30.54c2.2 4.32 5.9 7.9 7.21 12.57.62 2.24.5 5-1.31 6.44-1.39 1.13-3.4 1.16-4.91 2.12-3.3 2.09-2.68 7-1.48 10.74a122.2 122.2 0 0 0 6.54 16.16c2.18 4.45 5 9.13 9.76 10.67-6.88 6.42-17.3 7.8-26.5 5.85s-17.51-6.74-25.64-11.48c-3.34-1.94-6.87-4.09-8.5-7.59-2.22-4.76-.24-10.29 1.17-15.34a6.14 6.14 0 0 0 .17-3.94c-.63-1.52-2.27-2.31-3.79-3-6.42-2.68 6-5 0-8.56s-11.46-8.44-14.2-14.84c-4.67-10.89-.46-23.88 7-33.09s-1.28-15.63 8.26-22.66c6.08-4.49 12-9.33 18.76-12.69a51.5 51.5 0 0 1 44.11-.29c6.93 3.25 12.58 8.49 19.38 12 3.35 1.73 10.7 3.92 8.83 8.72-2.83 7.32-18.43 4.47-19.69 12.06z" fill="#3f3d56"/><path d="m490.23 469.84s24 21.9 18.89 21.9-18.89-21.9-18.89-21.9z" opacity=".1"/><path d="m486.79 478.43s15.89 15 11.17 16.31-11.17-16.31-11.17-16.31z" opacity=".1"/><path d="m480.22 442.18s1.32.86 3.86 2.38c4.31-4.32 10.63-11.27 12.68-16.87 3.22-8.81 1.93-34.35 1.93-34.35-1.08 1.07-2.69 10-2.69 10l-3.83 14.26-.67.56c-6 4.93-6.77 13.52-8.49 15.67s-2.79 8.35-2.79 8.35z" opacity=".1"/></g><circle cx="102.62" cy="743.69" fill="#3f3d56" r="8.7"/><circle cx="178.95" cy="702.77" fill="#3f3d56" r="8.7"/><path d="m180.79 714.26c10.5-.53 36.26-1.17 41.42-3.75s61.19-62.16 61.19-62.16l16.74-24.47 27.38-11.59 22.86-26.11 18.05-11.54s-3.88 1.22-4.2-2.63a9.17 9.17 0 0 0 -.72-2.88 7.16 7.16 0 0 0 -2.09-2.88 4.46 4.46 0 0 0 -4.6-.66c-4.18 1.61-59.16 10.95-59.16 10.95s-17.16 2.9-32.94 23.83a267.71 267.71 0 0 1 -30 33.81l-42.84 51.21s-21.59 29.4-11.09 28.87z" fill="#6c63ff" transform="translate(-129.25 -37.59)"/><path d="m180.66 726.93 42.51 54.35 1.52-.71 80.6-37.57 32.85-33.17s71.18-75 76.65-86.31-15.72-29.95-15.72-29.95c-16.68-29.31-25.82-20.29-25.82-20.29l-80.78 22.21h-.06l-.41.51c-6.27 6.67-77.29 82.26-100.44 105.93l-.05.06c-3.29 3.37-5.61 5.68-6.61 6.57-8.42 7.44-4.24 18.37-4.24 18.37z" fill="#6c63ff" transform="translate(-129.25 -37.59)"/><path d="m180.66 726.93 42.51 54.35 1.52-.71c22.49-28.23 77.94-97.29 93.49-111.37 19.64-17.8 14.82-28.9 14.82-28.9l-16.75-22.86c-12.63-23.42-22.9-22.08-23.77-21.91h-.06l-.42.47-100.47 105.94-.05.06c-3.29 3.37-5.61 5.68-6.61 6.57-8.39 7.43-4.21 18.36-4.21 18.36z" opacity=".1" transform="translate(-129.25 -37.59)"/><path d="m375.18 592.64-7.09-6.12s-16.09-3.52-29.62 12.24l4.83 5.8s12.23-14.17 31.88-11.92z" fill="#3f3d56" transform="translate(-129.25 -37.59)"/><path d="m375.18 592.64-7.09-6.12s-16.09-3.52-29.62 12.24l4.83 5.8s12.23-14.17 31.88-11.92z" opacity=".1" transform="translate(-129.25 -37.59)"/><path d="m257.85 590.48 68.91-89.5-4.18-1.64-70.21 87.92z" fill="#65617d"/><path d="m234.02 597.88 69.5-89.2-3.48-4.51-72.47 89.85z" fill="#65617d"/><path d="m431.86 548.63c-.75-.24-7.52-6.12-7.52-6.12a49.82 49.82 0 0 1 20.82-17.92c7.47-3.42 15.83-6.09 19.23-3 0 0 5.9 7.23-1.08 12.85l-5-1.26s-7.52-8.37-19.76 7.51z" fill="#3f3d56" transform="translate(-129.25 -37.59)"/><path d="m334.06 496.84-9.12 9.37-6.87-3.12 8-10.19 4.24 1.28z" fill="#3f3d56"/><path d="m251.84 628.06c.53-.54 31.42-31.61 40.36-38 7.82-5.58 58.1-17.79 71.31-20.93a7.16 7.16 0 0 0 -2.09-2.88c-12.6 3.4-53.19 14.34-66 17.59-15.13 3.83-43.14 43.59-43.58 44.22z" opacity=".1" transform="translate(-129.25 -37.59)"/><path d="m236.92 537.67-73.55 19.46-111.83 119.54v-3.43l109.69-116.75z" opacity=".1"/><path d="m517.41 304.17c9.21 1.95 19.63.57 26.51-5.85-4.71-1.55-7.58-6.22-9.77-10.67a122.15 122.15 0 0 1 -6.53-16.16c-1.21-3.71-1.83-8.65 1.47-10.74 1.52-1 3.52-1 4.92-2.12 1.81-1.45 1.93-4.2 1.3-6.44-1.3-4.67-5-8.25-7.21-12.57a21 21 0 0 1 19.62-30.54c1.86.08 4.16.2 5.11-1.39.73-1.23.21-2.81.44-4.22 1.27-7.59 16.86-4.74 19.68-12 1.86-4.8-5.48-7-8.83-8.72-6.8-3.52-12.45-8.76-19.38-12-1.14-.53-2.31-1-3.49-1.47a50.38 50.38 0 0 1 7.35 2.72c6.93 3.25 12.58 8.49 19.38 12 3.35 1.74 10.7 3.93 8.83 8.73-2.81 7.26-18.41 4.41-19.67 12-.24 1.41.29 3-.44 4.22-1 1.59-3.25 1.47-5.11 1.39a21 21 0 0 0 -19.59 30.56c2.2 4.33 5.9 7.91 7.21 12.58.62 2.24.5 5-1.31 6.44-1.39 1.13-3.39 1.16-4.91 2.12-3.3 2.09-2.68 7-1.48 10.74a122.2 122.2 0 0 0 6.49 16.16c2.18 4.45 5.05 9.12 9.76 10.67-6.88 6.42-17.3 7.79-26.5 5.85a50.26 50.26 0 0 1 -7.25-2.13c1.14.32 2.26.6 3.4.84z" opacity=".1" transform="translate(-129.25 -37.59)"/></svg>