<svg width="169" height="30" viewBox="0 0 169 30" fill="none" xmlns="http://www.w3.org/2000/svg">
<g clip-path="url(#clip0)">
<path d="M5.99392 28.579C5.39445 28.5024 4.5909 28.8341 4.23377 28.4132C3.88939 28.005 4.14448 27.227 4.13173 26.6147C4.13173 22.0485 4.13173 17.4824 4.14448 12.9034C4.14448 11.7555 3.95316 10.6586 3.26441 9.70198C2.60116 8.78364 1.70833 8.15866 0.509388 8.10764C0.0884826 8.09489 -0.0135551 7.94183 -0.000800398 7.54644C0.024709 6.84493 0.024709 6.14342 -0.000800398 5.44191C-0.0135551 5.08478 0.0757279 4.90621 0.458369 4.86795C2.48637 4.66387 4.51437 4.43429 6.52962 4.2047C9.42494 3.88583 12.3075 3.55421 15.2028 3.23534C18.0471 2.91648 20.8914 2.61036 23.7485 2.29149C26.5545 1.98538 29.3606 1.67927 32.1666 1.3604C35.266 1.01602 38.3654 0.658891 41.4648 0.314513C41.5413 0.301759 41.6178 0.352778 41.6944 0.378287C41.9495 0.607872 42.0005 0.913985 42.0132 1.24561C42.0132 1.94712 42.026 2.64863 42.0132 3.35014C41.9877 4.28123 41.8985 4.39602 41.0184 4.63836C40.2531 4.84244 39.5133 5.09753 38.8628 5.5567C37.0261 6.83217 36.044 8.57957 36.0313 10.8244C36.0058 16.5385 36.0313 22.2399 36.0185 27.954C36.0185 28.3876 36.1206 28.8596 35.7124 29.2039C34.4369 29.1912 33.1615 29.1657 31.886 29.1784C31.3631 29.1912 31.261 28.9871 31.261 28.5152C31.2738 22.6735 31.261 16.8319 31.2738 10.9902C31.2738 9.34485 30.7508 7.96734 29.5136 6.85768C29.2713 6.65361 29.0417 6.43678 28.7228 6.34749C27.7535 6.14342 26.7841 5.92659 25.7892 6.04138C23.3914 6.30923 21.3123 8.32447 21.0062 10.7096C20.9042 11.4621 20.8532 12.2274 20.8532 12.9927C20.8659 17.916 20.8659 22.8393 20.8532 27.7627C20.8532 28.1708 20.968 28.63 20.5215 28.9233C20.445 28.9233 20.3812 28.9233 20.3047 28.9233C19.4884 28.7958 18.6721 28.9616 17.8558 28.8341C16.7589 28.7958 16.7589 28.7958 16.7589 27.7116C16.7589 22.4695 16.7461 17.2273 16.7589 11.9978C16.7589 10.3397 16.2487 8.92395 14.935 7.85255C14.8202 7.76327 14.6799 7.69949 14.5523 7.63572C13.2258 7.32961 11.8866 7.06176 10.5984 7.75051C8.7872 8.69436 7.88162 10.2632 7.85611 12.2912C7.81784 17.1762 7.84335 22.0485 7.84335 26.9336C7.84335 27.2525 7.84335 27.5713 7.8306 27.8902C7.81784 28.1581 7.75407 28.3876 7.52448 28.5662C7.0143 28.681 6.50411 28.63 5.99392 28.579Z" fill="#6F43E7"/>
<path d="M83.5434 15.2774C83.6454 17.8539 83.3903 20.4303 83.7092 23.0323C82.5868 23.0323 81.3878 23.0323 80.2017 23.0323C80.5205 20.9916 80.342 18.9253 80.342 16.859C80.342 14.7928 80.5078 12.7137 80.2017 10.5709C81.5792 10.5709 83.0587 10.5709 84.5255 10.5709C84.6276 10.5709 84.7423 10.5709 84.7423 10.724C84.7423 11.4638 85.2015 12.0377 85.4949 12.6627C86.4005 14.6014 87.3188 16.5402 88.2371 18.4661C88.3264 18.6447 88.3519 18.8743 88.607 19.0146C88.9386 18.3386 89.2575 17.6881 89.5764 17.0248C90.4565 15.1882 91.4003 13.3897 92.1656 11.502C92.2804 11.2214 92.2549 10.7368 92.4334 10.6347C92.7396 10.4817 93.1732 10.5582 93.5559 10.5582C94.6655 10.5582 95.7624 10.5582 96.8721 10.5582C96.9103 10.5582 96.9486 10.5837 97.0124 10.5965C96.7828 11.0429 96.77 11.5403 96.77 12.025C96.77 15.2392 96.77 18.4406 96.77 21.6548C96.77 22.114 96.7828 22.5859 97.0124 23.0451C95.7879 23.0451 94.6017 23.0451 93.4156 23.0451C93.6069 22.165 93.7089 16.4891 93.5431 15.2902C93.3263 15.3157 93.3263 15.5198 93.2625 15.6601C92.2294 17.6498 91.209 19.6523 90.2779 21.6931C90.2014 21.8716 90.0611 22.216 90.0611 22.216C90 23 89.4233 23.0323 88.7983 23.0833C87.8035 23.1471 87.2168 23.0451 86.7959 21.8461C85.9796 19.563 84.7806 17.4202 83.7475 15.2264C83.6709 15.2647 83.6072 15.2647 83.5434 15.2774Z" fill="#6F43E7"/>
<path d="M160.748 19.1043C161.985 16.4768 163.375 14.0152 164.345 11.3749C164.612 10.6479 164.919 10.5586 165.544 10.5714C166.73 10.6097 167.916 10.5842 168.987 10.5842C168.911 14.7422 168.911 18.8747 169 23.0583C167.967 23.0583 166.794 23.0583 165.62 23.0583C165.926 20.4946 165.671 17.9054 165.786 15.3162C165.518 15.3162 165.518 15.482 165.467 15.584C164.485 17.561 163.503 19.5252 162.533 21.5022C162.431 21.7063 162.317 21.9231 162.253 22.1399C162.164 22.4333 162.176 22.9307 162.01 23.0073C161.666 23.1603 161.232 23.0838 160.824 23.0965C160.378 23.0965 159.88 23.2113 159.498 23.0583C159.115 22.9052 159.255 22.3313 159.077 21.9614C158.006 19.7293 156.96 17.4845 155.824 15.2651C155.799 17.8671 155.608 20.4436 155.863 23.071C154.753 23.071 153.554 23.071 152.483 23.071C152.572 18.9385 152.585 14.7932 152.47 10.5969C153.758 10.5969 155.212 10.5969 156.666 10.5969C156.845 10.5969 156.909 10.6352 156.921 10.8393C156.947 11.1326 157.036 11.426 157.164 11.6938C158.286 14.0917 159.434 16.4768 160.569 18.8747C160.595 18.9002 160.646 18.9513 160.748 19.1043Z" fill="#6F43E7"/>
<path d="M99.9841 10.5831C101.158 10.5831 102.484 10.5831 103.823 10.5831C106.259 10.5831 108.708 10.5958 111.145 10.5703C111.642 10.5703 111.833 10.6468 111.859 11.208C111.884 11.9861 112.076 12.7514 112.203 13.5932C110.991 13.236 109.818 13.0065 108.619 12.9299C107.012 12.8279 105.392 12.8917 103.785 12.8917C103.441 12.8917 103.288 13.0575 103.288 13.4019C103.3 13.9758 103.3 14.5498 103.288 15.1237C103.275 15.5447 103.466 15.6977 103.862 15.685C105.89 15.6212 107.93 15.889 109.971 15.3406C109.856 16.1441 109.741 16.9094 109.652 17.6874C109.614 18.0573 109.346 17.9808 109.129 17.9808C107.446 17.9808 105.775 18.0063 104.091 17.968C103.428 17.9553 103.224 18.1849 103.275 18.8099C103.313 19.32 103.288 19.8302 103.288 20.3404C103.288 20.6083 103.39 20.7868 103.696 20.7868C106.132 20.7358 108.581 20.9144 111.017 20.6848C111.578 20.6338 112.063 20.3659 112.624 20.0598C112.484 21.0674 112.382 22.0113 112.229 22.9296C112.178 23.223 111.872 23.0827 111.693 23.0827C108.951 23.0954 106.208 23.0827 103.479 23.0827C102.267 23.0827 101.068 23.0827 99.9969 23.0827C100.073 18.8991 100.073 14.7539 99.9841 10.5831Z" fill="#6F43E7"/>
<path d="M136.578 10.5957C137.789 10.5957 138.976 10.5957 140.162 10.5957C139.881 12.088 140.06 13.6058 140.021 15.1109C139.996 16.1312 140.009 17.1516 140.034 18.172C140.085 20.0087 140.889 20.8377 142.687 21.0035C143.261 21.0546 143.835 20.9908 144.396 20.8505C145.353 20.6209 145.991 19.8174 146.016 18.5929C146.067 16.1695 146.042 13.7589 146.029 11.3355C146.029 11.0931 145.927 10.8508 145.863 10.5957C147.049 10.5957 148.235 10.5957 149.473 10.5957C149.065 11.7054 149.269 12.8533 149.23 13.9757C149.179 15.6466 149.383 17.3302 149.128 19.0011C148.771 21.3224 147.368 22.6999 145.072 23.1463C143.529 23.4525 141.986 23.4269 140.468 23.0315C138.274 22.4576 136.897 20.6592 136.845 18.2995C136.807 16.2588 136.833 14.218 136.833 12.19C136.845 11.6416 136.807 11.1186 136.578 10.5957Z" fill="#6F43E7"/>
<path d="M35.7131 29.1938C35.7131 23.0843 35.7259 16.9747 35.7259 10.8525C35.7259 7.63829 37.8432 4.99807 40.9936 4.32207C41.5038 4.20727 41.6951 4.02871 41.6823 3.49301C41.6441 2.45988 41.6951 1.41399 41.7079 0.380859C42.3073 0.444633 42.843 0.712482 43.417 0.852784C43.6976 0.916557 43.7741 1.12063 43.7614 1.37573C43.7614 2.3706 43.7486 3.37822 43.7614 4.37309C43.7741 4.85776 43.4552 4.89603 43.1109 4.97256C40.764 5.55927 39.0931 6.92403 38.2386 9.21988C37.9707 9.9469 37.8687 10.6994 37.8687 11.4647C37.8814 17.115 37.8687 22.7654 37.8687 28.4157C37.8687 29.232 37.8687 29.232 37.0396 29.1938C36.606 29.2065 36.1595 29.2065 35.7131 29.1938Z" fill="#C5B7DD"/>
<path d="M20.5222 28.9121C20.6243 28.6188 20.5987 28.3254 20.5987 28.032C20.5987 22.6751 20.6115 17.3181 20.5987 11.9611C20.5987 9.84381 21.3385 8.10917 23.0094 6.79543C24.7058 5.46894 27.0526 5.29037 28.7363 6.33626C25.6624 6.22147 22.7415 8.65762 22.7288 12.5478C22.716 17.7262 22.7288 22.8919 22.7288 28.0703C22.7288 28.9504 22.7288 28.9504 21.8615 28.9376C21.415 28.9249 20.9686 28.9249 20.5222 28.9121Z" fill="#C5B7DD"/>
<path d="M7.52529 28.5557C7.51254 26.1961 7.49978 23.8492 7.49978 21.4896C7.49978 18.4157 7.47428 15.329 7.51254 12.2552C7.53805 9.80625 9.18341 7.62519 11.4155 7.10225C12.5251 6.8344 13.6093 6.92368 14.5787 7.62519C11.7088 7.71448 10.038 10.0486 9.7191 12.3317C9.62982 13.0077 9.60431 13.6837 9.60431 14.3597C9.61707 18.8493 9.60431 23.3518 9.60431 27.8414C9.60431 28.6705 9.60431 28.6705 8.80077 28.645C8.37986 28.645 7.95895 28.5939 7.52529 28.5557Z" fill="#C5B7DD"/>
<path d="M133.797 23.0707C132.534 23.0707 131.361 23.0707 130.328 23.0707C130.379 18.9127 130.379 14.7802 130.328 10.6094C131.361 10.6094 132.56 10.6094 133.81 10.6094C133.529 11.1451 133.542 11.719 133.542 12.2802C133.542 15.3414 133.542 18.4025 133.542 21.4636C133.529 21.9993 133.542 22.5223 133.797 23.0707Z" fill="#6F43E7"/>
<path d="M17.8567 28.8361C18.673 28.7979 19.4893 28.7851 20.3056 28.9254C19.4893 28.9764 18.6602 29.0019 17.8567 28.8361Z" fill="#C5B7DD"/>
<path d="M5.99463 28.5802C6.50482 28.5674 7.01501 28.5674 7.52519 28.5547C7.02776 28.8225 6.50482 28.6695 5.99463 28.5802Z" fill="#C5B7DD"/>
<path d="M128.21 23.0453C126.68 21.4255 125.851 19.2061 123.67 18.1603C123.861 18.071 123.976 18.02 124.091 17.9689C125.647 17.3057 126.463 15.9537 126.323 14.2701C126.157 12.2803 125.366 11.1962 123.529 10.8263C120.596 10.2396 117.611 10.7243 114.805 10.5457C114.984 14.7548 114.933 18.8873 114.831 23.0453C115.902 23.0453 117.101 23.0453 118.3 23.0453C117.93 21.7443 118.16 20.4434 118.109 19.1551C118.096 18.7852 118.376 18.7342 118.683 18.7215C120.915 18.5812 122.496 19.576 123.504 21.7443C123.708 22.1652 123.848 22.5862 123.631 23.0453C125.187 23.0453 126.705 23.0453 128.21 23.0453ZM122.012 16.4256C120.825 16.7572 119.614 16.5787 118.402 16.5659C118.109 16.5659 118.096 16.3236 118.096 16.1068C118.096 15.2139 118.096 14.3211 118.096 13.441C118.096 13.1222 118.223 12.9691 118.542 12.9691C119.052 12.9691 119.563 12.9691 120.073 12.9691C120.073 12.9818 120.073 12.9946 120.073 12.9946C120.609 12.9946 121.132 12.9563 121.654 13.0074C122.56 13.0839 123.045 13.5941 123.147 14.4614C123.249 15.3925 122.828 16.196 122.012 16.4256Z" fill="#6F43E7"/>
<path d="M77.4594 14.7167C76.9237 12.3698 75.4313 11.0178 73.0972 10.5842C71.4136 10.2653 69.7172 10.2653 68.0336 10.6224C65.827 11.0944 64.3602 12.4081 63.8118 14.6274C63.4547 16.0687 63.4547 17.5355 63.8118 18.9768C64.3602 21.1961 65.7122 22.6119 67.9953 23.0838C68.8754 23.2624 69.7555 23.3517 70.7249 23.3261C71.3626 23.3644 72.0514 23.2879 72.7529 23.1986C75.087 22.918 76.7834 21.5022 77.3828 19.2446C77.791 17.7523 77.8165 16.2345 77.4594 14.7167ZM74.2452 18.8875C73.9773 19.8058 73.4033 20.4563 72.485 20.7369C71.2095 21.1323 69.9341 21.1323 68.6841 20.6604C67.9061 20.367 67.3576 19.8186 67.1025 19.0278C66.6433 17.6248 66.6178 16.1963 67.0515 14.7805C67.3321 13.8366 67.9571 13.2117 68.8882 12.9183C69.9468 12.5867 71.031 12.5739 72.0896 12.8163C73.5947 13.1606 74.3344 14.1683 74.4875 15.9284C74.513 16.2218 74.4875 16.5279 74.4875 16.8212C74.5258 17.5227 74.4365 18.2115 74.2452 18.8875Z" fill="#6F43E7"/>
<path d="M61.6052 14.0013C61.4012 12.4325 60.4446 11.2845 58.9268 10.8636C58.2508 10.6723 57.562 10.583 56.8478 10.583C54.7432 10.583 52.6387 10.583 50.5342 10.583C50.3556 10.583 50.1643 10.5193 50.0623 10.583C50.4194 12.7003 50.2153 14.7793 50.2281 16.8456C50.2281 18.9119 50.4066 20.9909 50.0878 23.0571C51.2612 23.0571 52.4474 23.0571 53.6846 23.0571C53.2764 21.9092 53.5188 20.7996 53.4422 19.7027C53.404 19.2307 53.5443 19.0904 54.029 19.0904C55.432 19.0904 56.835 19.1797 58.2253 18.9884C59.9726 18.7461 61.2609 17.5981 61.567 15.889C61.6818 15.264 61.6945 14.639 61.6052 14.0013ZM57.4217 16.5522C56.2483 16.9349 55.0366 16.8328 53.8249 16.8073C53.4933 16.7946 53.4422 16.5267 53.4422 16.2461C53.4422 15.7742 53.4422 15.315 53.4422 14.8431C53.4422 14.3712 53.4422 13.912 53.4422 13.4401C53.4422 13.185 53.506 12.9682 53.8249 12.9682C54.9856 12.9427 56.159 12.8406 57.3069 13.134C58.085 13.3381 58.4421 13.8482 58.4931 14.7283C58.5441 15.6467 58.1742 16.3099 57.4217 16.5522Z" fill="#6F43E7"/>
</g>
<defs>
<clipPath id="clip0">
<rect width="169" height="28.9149" fill="white" transform="translate(0 0.316406)"/>
</clipPath>
</defs>
</svg>
