<svg viewBox="0 0 1119.78 126.78" xmlns="http://www.w3.org/2000/svg"><g fill="#6e43e8" transform="translate(-76.61 -191.46)"><path d="m453.81 236.69a29.54 29.54 0 0 1 -2.81 12.83q-5.16 11.11-18.16 15.5a24.7 24.7 0 0 1 -7.82 1.57 36.4 36.4 0 0 1 -16.75-3.6v-1.57a30.48 30.48 0 0 0 21.13-2.5q8.61-4.38 11.74-14.41a20.53 20.53 0 0 0 .94-5.94v-3.45q-.31-11-5.79-17.45t-15.34-6.5h-18v93.45a10.05 10.05 0 0 0 3.05 7 9.49 9.49 0 0 0 7 2.89h2v1.57h-34.29v-1.57h2a9.49 9.49 0 0 0 7-2.89 10.05 10.05 0 0 0 3.05-7v-87.5a10.16 10.16 0 0 0 -3.28-6.49 9.61 9.61 0 0 0 -6.74-2.59h-1.87l-.16-1.56h40.85q15 0 23.64 8.06t8.61 22.15z"/><path d="m493.73 226.12a60 60 0 0 1 53.06 0 48.42 48.42 0 0 1 19.21 17.46 49.2 49.2 0 0 1 0 51 48.34 48.34 0 0 1 -19.17 17.46 53.62 53.62 0 0 1 -24.73 6.18 64.2 64.2 0 0 1 -22.39-3.6 51.55 51.55 0 0 1 -16.82-10 46.19 46.19 0 0 1 -11.31-15.62q-4.15-9.24-4.15-21.68a43.65 43.65 0 0 1 7.12-23.71 48.38 48.38 0 0 1 19.18-17.49zm-2.9 75q11.82 12.45 29.35 12.44a39.06 39.06 0 0 0 29.43-12.44q11.89-12.45 11.89-32t-11.89-32a39.06 39.06 0 0 0 -29.43-12.44q-17.53 0-29.35 12.44t-11.82 32q-.01 19.54 11.82 31.98z"/><path d="m713.18 314.48h2.35v1.57h-32.53v-1.41h2.35a5.71 5.71 0 0 0 4.15-1.8 4.94 4.94 0 0 0 1.48-4.3l-8.17-64.54-29.58 58.23q-4.38 9.56-5.48 16h-1.56l-37.73-72.79-7 63.09a4.92 4.92 0 0 0 1.48 4.22 5.78 5.78 0 0 0 4.31 1.88h2.19v1.41h-29v-1.57h2.35a10.42 10.42 0 0 0 8.77-4.07 9.51 9.51 0 0 0 1.87-4.85l12.21-85.62h1.57l41.32 79.52 39.92-79.52h1.41l12.68 85.93a9.58 9.58 0 0 0 3.6 6.27 11 11 0 0 0 7.04 2.35z"/><path d="m727.42 314.48a8.89 8.89 0 0 0 6.34-2.42 8.31 8.31 0 0 0 2.74-5.87v-74.35a7.45 7.45 0 0 0 -2.66-5.8 9.39 9.39 0 0 0 -6.42-2.34h-2.19v-1.57h45.71a59.57 59.57 0 0 0 11.27-.94 37 37 0 0 0 6.26-1.56v17.84l-1.72-.16v-2.31a8 8 0 0 0 -2.19-5.64 7.42 7.42 0 0 0 -5.64-2.35h-32.56v39.76h26.77a6 6 0 0 0 4.77-1.88 6.84 6.84 0 0 0 1.65-4.69v-2h1.72v21.92h-1.72v-2q0-4.38-3.29-5.95a11 11 0 0 0 -2.66-.62h-27.24v39.65h24.58a26.59 26.59 0 0 0 12.13-2.51 21 21 0 0 0 7.51-5.95 53.55 53.55 0 0 0 5.25-9.07h1.56l-8.61 22.38h-63.55v-1.57z"/><path d="m838.4 227h-8.29v79a8.37 8.37 0 0 0 4.38 7.36 9.4 9.4 0 0 0 4.54 1.09h2l.16 1.57h-32.06v-1.57h2.19a8.69 8.69 0 0 0 6.18-2.42 7.75 7.75 0 0 0 2.59-5.87v-74.32a7.52 7.52 0 0 0 -2.59-5.8 8.88 8.88 0 0 0 -6.18-2.34h-2.19v-1.57h39.29q14.72 0 23.24 6.73a21.46 21.46 0 0 1 8.54 17.69q0 10.95-6.89 18.31a27 27 0 0 1 -17.53 8.46q5 2.19 12.05 12.21-.17 0 5.4 6.88t8.92 10.73c2.24 2.55 4.1 4.51 5.56 5.86a18.76 18.76 0 0 0 13.3 5.48v1.57h-4.85q-12.36 0-19.41-4.85a45.75 45.75 0 0 1 -9.7-8.93q-.94-1.25-7.91-11t-7.43-10.41q-8.46-10.49-15.81-10.49v-1.56q18.32 0 22.07-1.88c3.44-1.78 5.79-3.65 7-5.64a25.44 25.44 0 0 0 3.91-13.77q0-9.56-5.63-14.72t-15.18-5.63c-2.78-.17-6.02-.17-9.67-.17z"/><path d="m909.47 314.48a11.42 11.42 0 0 0 7.35-2.5 7.42 7.42 0 0 0 3.13-6v-73.83a7.42 7.42 0 0 0 -3.13-6 11.65 11.65 0 0 0 -7.51-2.5h-2v-1.57h35.37v1.57h-2a11.6 11.6 0 0 0 -7.28 2.34 8.05 8.05 0 0 0 -3.37 5.8v74.35a7.72 7.72 0 0 0 3.29 5.87 11.65 11.65 0 0 0 7.36 2.42h2l.16 1.57h-35.56v-1.57z"/><path d="m1055.35 223.7h-2.35a7.22 7.22 0 0 0 -6.41 3.28 6.78 6.78 0 0 0 -1.1 3.29v52.73q0 16.29-10.41 25.75t-28.57 9.47q-18.15 0-28.64-9.39t-10.49-25.67v-52.73a6.18 6.18 0 0 0 -2.19-4.78 7.71 7.71 0 0 0 -5.32-2h-2.35v-1.57h29.74v1.57h-2.35a7.73 7.73 0 0 0 -5.32 2 6.18 6.18 0 0 0 -2.19 4.78v50.87q0 15.18 7.75 23.95t21.91 8.76q14.18 0 22.7-8.29t8.53-22.7v-52.59a6.71 6.71 0 0 0 -2.27-4.86 7.61 7.61 0 0 0 -5.24-1.87h-2.35v-1.57h26.92z"/><path d="m1194 314.48h2.35v1.57h-32.56v-1.41h2.35a5.69 5.69 0 0 0 4.14-1.8 4.92 4.92 0 0 0 1.49-4.3l-8.14-64.5-29.58 58.23q-4.38 9.56-5.48 16h-1.57l-37.72-72.79-7 63.09a4.92 4.92 0 0 0 1.48 4.22 5.78 5.78 0 0 0 4.31 1.88h2.19v1.41h-29v-1.57h2.35a10.42 10.42 0 0 0 8.77-4.07 9.51 9.51 0 0 0 1.87-4.85l12.21-85.62h1.57l41.32 79.52 39.92-79.52h1.41l12.67 85.93a9.63 9.63 0 0 0 3.61 6.27 11 11 0 0 0 7.04 2.31z"/><path d="m337.76 215.82a24.36 24.36 0 0 0 -24.36-24.36h-212.4a24.36 24.36 0 0 0 -24.36 24.36v100.37h16.8v-28a34.11 34.11 0 1 1 68.21 0v28h12.18v-28a34.11 34.11 0 1 1 68.21 0v28h12.18v-28a34.1 34.1 0 1 1 68.2 0v28h15.33zm-244.32 25.31a34.11 34.11 0 1 1 68.21 0zm80.39 0a34.11 34.11 0 1 1 68.21 0zm80.39 0a34.11 34.11 0 1 1 68.21 0z"/></g></svg>