<svg xmlns="http://www.w3.org/2000/svg" viewBox="0 0 188.48 188.48"><defs><style>.cls-1{fill:#6f43e7;}.cls-2,.cls-3{fill:#fff;fill-rule:evenodd;}.cls-2{opacity:0.4;}</style></defs><g id="Layer_2" data-name="Layer 2"><g id="Capa_1" data-name="Capa 1"><rect class="cls-1" width="188.48" height="188.48"/><path class="cls-2" d="M155.6,49.17l6.7,2.09V63.39C151.72,64.86,143.92,73,143.92,84v55.3l-6.9-.15-.14-.31-13.15-.28V81.92A16.41,16.41,0,0,0,116,67.81l-.27.19a14.57,14.57,0,0,0-5.43.6C102,71,96.88,78.09,96.88,87.07v51.22l-6.82-.15-.3-.31-11.17-.24V84.92a16,16,0,0,0-6.43-13l-.24.2-.07,0c-9-.36-15.73,7.83-15.73,17.66v47.69l-6.83-.15L49,137l-7.69-.16V62.23l22.2-2.47,91.75-10.25.07-.31Z"/><path class="cls-3" d="M26.17,63.62,63.5,59.45l92.1-10.28V61.3c-10.28,1.19-18.39,10-18.39,19.7v58.16l-13.78-.3V81.92c0-9.69-7.78-16.88-17.06-16-9,.85-16.2,9-16.2,18.22v54l-11.88-.25v-53c0-9-6.75-15.74-14.77-15h0c-7.82.74-14.09,8.33-14.09,16.91v50.42L39,137q0-12.31,0-24.65V87.53c0-8.39-5.86-14.7-12.88-14.1Z"/></g></g></svg>