<svg id="Layer_1" data-name="Layer 1" xmlns="http://www.w3.org/2000/svg" viewBox="0 0 261.15 124.73"><title>logo-only</title><path d="M742.76,162.82a24.36,24.36,0,0,0-24.36-24.36H506a24.36,24.36,0,0,0-24.36,24.36V263.19h16.83v-28h0a34.11,34.11,0,1,1,68.21,0h0v28h12.18v-28h0a34.11,34.11,0,1,1,68.21,0h0v28h12.18v-28h0a34.1,34.1,0,1,1,68.2,0h0v28h15.33ZM498.44,188.13a34.11,34.11,0,1,1,68.21,0Zm80.39,0a34.11,34.11,0,1,1,68.21,0Zm80.39,0a34.11,34.11,0,1,1,68.21,0Z" transform="translate(-481.61 -138.46)"/></svg>
