<svg viewBox="0 0 139 30" xmlns="http://www.w3.org/2000/svg"><g transform="translate(-5 -5.5)"><path d="m10.6 5.5h127.8c3.09 0 5.6 2 5.6 4.39v21.22c0 2.42-2.51 4.39-5.6 4.39h-127.8c-3.09 0-5.6-2-5.6-4.39v-21.22c0-2.42 2.51-4.39 5.6-4.39z" fill="#6e43e8" fill-rule="evenodd"/><g fill="#fff"><path d="m75.4 26.62h-1.46l1.13-2.79-2.25-5.69h1.54l1.42 3.86 1.43-3.87h1.54zm-5.61-2.44a2.42 2.42 0 0 1 -1.5-.55v.37h-1.51v-8.44h1.51v3a2.48 2.48 0 0 1 1.5-.55c1.58 0 2.66 1.28 2.66 3.09s-1.08 3.08-2.66 3.08zm-.32-4.88a1.68 1.68 0 0 0 -1.18.53v2.52a1.65 1.65 0 0 0 1.18.54c.85 0 1.44-.73 1.44-1.8s-.59-1.79-1.44-1.79zm-8.8 4.33a2.38 2.38 0 0 1 -1.5.55c-1.57 0-2.66-1.27-2.66-3.09s1.09-3.09 2.66-3.09a2.44 2.44 0 0 1 1.5.55v-3h1.52v8.45h-1.52zm0-3.8a1.63 1.63 0 0 0 -1.17-.53c-.86 0-1.45.73-1.45 1.79s.59 1.8 1.45 1.8a1.6 1.6 0 0 0 1.17-.54zm-9 1.68a1.69 1.69 0 0 0 1.8 1.49 3.55 3.55 0 0 0 1.76-.56v1.26a4.73 4.73 0 0 1 -2 .46 3 3 0 0 1 -3-3.13 2.87 2.87 0 0 1 2.88-3.03 2.66 2.66 0 0 1 2.59 3 5.53 5.53 0 0 1 0 .56zm1.37-2.34a1.38 1.38 0 0 0 -1.37 1.36h2.57a1.28 1.28 0 0 0 -1.19-1.36zm-5.34.93v3.9h-1.5v-5.9h1.51v.59a2 2 0 0 1 1.45-.69 1.65 1.65 0 0 1 .49.06v1.35a1.83 1.83 0 0 0 -.53-.07 1.87 1.87 0 0 0 -1.41.76zm-6.7 1.41a1.69 1.69 0 0 0 1.76 1.49 3.55 3.55 0 0 0 1.76-.56v1.26a4.73 4.73 0 0 1 -2 .46 3 3 0 0 1 -3-3.13 2.87 2.87 0 0 1 2.88-3.03 2.66 2.66 0 0 1 2.6 3 5.53 5.53 0 0 1 0 .56zm1.37-2.34a1.38 1.38 0 0 0 -1.37 1.36h2.57a1.28 1.28 0 0 0 -1.23-1.36zm-6.67 4.83-1.2-4-1.2 4h-1.3l-2-5.9h1.51l1.19 4 1.19-4h1.37l1.19 4 1.19-4h1.51l-2 5.9zm-9.23.14a2.94 2.94 0 0 1 -3-3.09 3 3 0 1 1 6.07 0 2.94 2.94 0 0 1 -3.07 3.13zm0-4.92c-.88 0-1.49.75-1.49 1.83s.61 1.83 1.49 1.83 1.53-.7 1.53-1.79-.65-1.83-1.53-1.83zm-6.62 1.87h-1.36v2.91h-1.49v-8.07h2.87a2.61 2.61 0 1 1 0 5.2zm-.22-4h-1.14v2.81h1.14a1.38 1.38 0 1 0 0-2.75z" fill-rule="evenodd"/><path d="m132.71 14.9a3.93 3.93 0 0 0 -3.93-3.9h-34.19a3.93 3.93 0 0 0 -3.93 3.92v16.14h2.71v-4.51a5.49 5.49 0 1 1 11 0v4.51h2v-4.51a5.49 5.49 0 1 1 11 0v4.51h2v-4.51a5.49 5.49 0 1 1 11 0v4.51h2.47zm-39.34 4.1a5.49 5.49 0 1 1 11 0zm12.95 0a5.49 5.49 0 1 1 11 0zm12.94 0a5.49 5.49 0 1 1 11 0z"/></g></g></svg>