<svg xmlns="http://www.w3.org/2000/svg" xmlns:xlink="http://www.w3.org/1999/xlink" viewBox="0 0 1444.314 233.863"><defs><style>.cls-1{fill:url(#名称未設定グラデーション_429);}.cls-2{fill:url(#名称未設定グラデーション_429-2);}.cls-3{fill:#1d1d1f;}</style><linearGradient id="名称未設定グラデーション_429" x1="23.248" y1="188.585" x2="175.221" y2="36.612" gradientUnits="userSpaceOnUse"><stop offset="0" stop-color="#00a029"/><stop offset="0.34" stop-color="#009d2b"/><stop offset="0.545" stop-color="#009534"/><stop offset="0.713" stop-color="#008742"/><stop offset="0.862" stop-color="#007356"/><stop offset="0.997" stop-color="#00596f"/><stop offset="1" stop-color="#005870"/></linearGradient><linearGradient id="名称未設定グラデーション_429-2" x1="221.682" y1="64.336" x2="45.102" y2="166.284" xlink:href="#名称未設定グラデーション_429"/></defs><g id="横組み2"><path class="cls-1" d="M44.68,116.892c.6,51.073,17.308,114.284,76.78,116.878h-.145c-1.444.066-2.887.093-4.331.093A116.974,116.974,0,0,1,112.508,0h0C172,2.62,188.657,65.8,189.275,116.892a72.3,72.3,0,1,0-144.595,0"/><path class="cls-2" d="M189.275,116.971C188.671,65.9,171.968,2.686,112.5.093h.146C114.084.026,115.528,0,116.971,0a116.974,116.974,0,0,1,4.476,233.863h0c-59.491-2.62-76.149-65.8-76.767-116.892a72.3,72.3,0,0,0,143.88,10.157,71.464,71.464,0,0,0,.715-10.157"/><path class="cls-3" d="M375.37,168.714c-9.685,5.649-22.274,8.393-34.218,8.393-36.639,0-62.463-25.825-62.463-59.881,0-33.572,25.179-60.527,62.3-60.527a70.95,70.95,0,0,1,32.6,7.747V85.752a57.688,57.688,0,0,0-32.6-10.491c-24.695,0-41.8,17.915-41.8,41.642,0,23.4,16.947,41.481,42.933,41.481a54.746,54.746,0,0,0,33.25-11.3Z"/><path class="cls-3" d="M442.05,169.521c-4.842,3.873-13.073,7.586-23.565,7.586-6.456,0-13.073-1.453-18.4-5.327-5.488-4.035-8.877-10.33-8.877-18.238a22.444,22.444,0,0,1,10.168-19.208c5.972-4.035,14.043-5.487,22.274-5.487a66.557,66.557,0,0,1,15.334,1.775v-4.681c0-4.842-1.292-8.393-3.874-10.814-2.905-2.582-7.425-3.873-13.4-3.873a44.949,44.949,0,0,0-23.887,7.1V100.6c6.294-3.551,15.494-6.456,26.793-6.456,10.33,0,19.53,2.421,25.5,7.424,5.327,4.52,8.394,11.3,8.394,21.144v30.506c0,4.358,1.614,7.424,5.487,7.424a10.27,10.27,0,0,0,4.358-1.13v15.334a23.409,23.409,0,0,1-9.684,1.937c-6.456,0-12.59-2.26-16.3-7.263Zm-3.066-26.148a51.114,51.114,0,0,0-12.267-1.614c-8.07,0-15.979,2.583-15.979,10.33,0,6.456,5.649,9.523,12.589,9.523a28.158,28.158,0,0,0,15.657-4.842Z"/><path class="cls-3" d="M484.2,95.92h19.369v11.137l.323.162A27.766,27.766,0,0,1,526.97,95.113a20.062,20.062,0,0,1,5.326.646v18.723a25.179,25.179,0,0,0-6.456-.807c-9.2,0-16.625,4.035-22.113,11.782v49.874H484.2Z"/><path class="cls-3" d="M557.922,58.475h32.6c12.589,0,24.856.807,34.7,6.133C635.4,70.1,642.982,80.1,642.982,94.79c0,13.72-6.617,23.888-16.3,29.7-9.523,5.649-22.112,6.94-38.252,6.94H578.42v43.9h-20.5Zm32.12,55.845c11.943,0,18.722-.484,24.21-3.712,5.165-3.067,8.232-8.07,8.232-15.172,0-7.586-3.551-12.751-9.523-15.656-5.811-2.905-13.235-3.067-23.242-3.067h-11.3V114.32Z"/><path class="cls-3" d="M700.114,169.521c-4.843,3.873-13.074,7.586-23.565,7.586-6.457,0-13.074-1.453-18.4-5.327-5.488-4.035-8.878-10.33-8.878-18.238a22.445,22.445,0,0,1,10.169-19.208c5.972-4.035,14.042-5.487,22.274-5.487a66.549,66.549,0,0,1,15.333,1.775v-4.681c0-4.842-1.291-8.393-3.874-10.814-2.9-2.582-7.424-3.873-13.4-3.873a44.95,44.95,0,0,0-23.888,7.1V100.6c6.295-3.551,15.5-6.456,26.793-6.456,10.33,0,19.53,2.421,25.5,7.424,5.326,4.52,8.393,11.3,8.393,21.144v30.506c0,4.358,1.614,7.424,5.488,7.424a10.269,10.269,0,0,0,4.357-1.13v15.334a23.409,23.409,0,0,1-9.684,1.937c-6.456,0-12.589-2.26-16.3-7.263Zm-3.067-26.148a51.114,51.114,0,0,0-12.267-1.614c-8.07,0-15.979,2.583-15.979,10.33,0,6.456,5.649,9.523,12.59,9.523a28.154,28.154,0,0,0,15.656-4.842Z"/><path class="cls-3" d="M742.261,95.92h19.368v11.137l.323.162a27.767,27.767,0,0,1,23.081-12.106,20.057,20.057,0,0,1,5.326.646v18.723a25.179,25.179,0,0,0-6.456-.807c-9.2,0-16.625,4.035-22.112,11.782v49.874h-19.53Z"/><path class="cls-3" d="M806.2,58.475h19.53v71.663l.323.161L857.685,95.92h23.243l-33.25,35.509,36.316,43.9H859.945l-33.9-41.8-.323.162v41.642H806.2Z"/><path class="cls-3" d="M906.6,58.475a9.614,9.614,0,1,1-9.742,9.613A9.684,9.684,0,0,1,906.6,58.475ZM896.766,95.92H916.3v79.411h-19.53Z"/><path class="cls-3" d="M932.134,95.92H951.5v8.555l.322.161a39.144,39.144,0,0,1,26.148-10.491c8.554,0,15.979,2.905,20.982,8.393,4.681,5,6.779,11.621,6.779,23.4v49.39H986.2v-46c0-7.1-.968-10.976-3.228-13.558-2.421-2.905-5.972-4.358-10.491-4.358-7.747,0-15.818,4.519-20.821,10.007v53.909h-19.53Z"/><path class="cls-3" d="M1032.064,187.436c7.747,5,16.786,8.071,25.5,8.071,13.558,0,22.435-7.586,22.435-20.983v-5l-.323-.323c-5.165,3.712-12.751,5.81-20.175,5.81-20.5,0-37.93-15.656-37.93-39.221,0-22.919,15.979-41.642,41.158-41.642A44.936,44.936,0,0,1,1080,97.416v-1.5h19.53v78.443c0,24.049-16.463,38.252-41.32,38.252a60.144,60.144,0,0,1-26.147-5.81ZM1080,115.289a34.332,34.332,0,0,0-16.3-4.2c-14.2,0-22.435,10.814-22.435,23.727,0,13.719,8.877,23.887,22.435,23.887a29.079,29.079,0,0,0,16.3-5Z"/><path class="cls-3" d="M1140.994,116.9c0-34.057,25.825-60.2,60.2-60.2s60.2,26.147,60.2,60.2-25.825,60.2-60.2,60.2S1140.994,150.957,1140.994,116.9Zm99.909,0c0-23.242-16.947-41.481-39.7-41.481s-39.706,18.239-39.706,41.481,16.948,41.481,39.706,41.481S1240.9,140.143,1240.9,116.9Z"/><path class="cls-3" d="M1277.24,95.918h19.368v8.555l.323.161a39.142,39.142,0,0,1,26.148-10.491c8.554,0,15.979,2.905,20.982,8.393,4.681,5,6.779,11.621,6.779,23.4v49.39h-19.53v-46c0-7.1-.968-10.976-3.228-13.558-2.421-2.905-5.972-4.358-10.491-4.358-7.748,0-15.818,4.519-20.821,10.007v53.909h-19.53Z"/><path class="cls-3" d="M1386.531,140.95c2.421,13.235,12.912,20.014,26.309,20.014,10.007,0,19.368-3.712,27.116-9.2V169.68c-7.425,4.681-18.723,7.424-29.053,7.424-25.5,0-44.225-16.463-44.225-41.319,0-25.179,18.885-41.642,40.513-41.642,19.691,0,37.123,13.4,37.123,38.9a59.573,59.573,0,0,1-.484,7.909Zm39.544-13.558c-1.453-11.944-10.168-17.432-19.046-17.432-9.038,0-18.077,5.488-20.5,17.432Z"/></g></svg>