<svg xmlns="http://www.w3.org/2000/svg" xmlns:xlink="http://www.w3.org/1999/xlink" width="64" height="64" viewBox="0 0 18.062 18.062"><g transform="matrix(1.750568 0 0 1.750568 -73.527298 -246.88563)"><use xlink:href="#A" fill="#c12766"/><use xlink:href="#A" x="-3.042" y="1.746" fill="#3e489f"/><use xlink:href="#A" x="-.018" y="3.5" fill="#714099"/><use xlink:href="#A" x="-3.025" y="-1.73" fill="#78932c"/><use xlink:href="#A" x="-.002" y="-3.48" fill="#cf242a"/><g fill="#fff"><circle r=".292" cy="142.702" cx="47.824"/><circle r=".292" cy="144.449" cx="44.8"/><circle r=".292" cy="147.927" cx="44.784"/><circle r=".292" cy="149.68" cx="47.806"/></g><path d="M47.64 142.783l-2.648 1.517m-.204.377l.01 3.052m.2.325l2.624 1.56" fill="none" stroke="#fff" stroke-width=".097"/><circle r=".292" cy="146.181" cx="47.825" fill="#fff"/><path d="M47.815 142.907l.01 3.052m.005.446l.01 3.052m-.196-3.157l-2.648 1.517m.012-3.23l2.624 1.56" fill="none" stroke="#fff" stroke-width=".097"/></g><defs><path id="A" d="M48.782 147.85l-1.925-.006-.957-1.67.967-1.664 1.925.006.957 1.67z"/></defs></svg>
