<svg xmlns="http://www.w3.org/2000/svg" xmlns:xlink="http://www.w3.org/1999/xlink" viewBox="0 0 81 17" fill="#fff" fill-rule="evenodd" stroke="#000" stroke-linecap="round" stroke-linejoin="round"><use xlink:href="#A" x=".5" y=".5"/><symbol id="A" overflow="visible"><path d="M69.017 3.524c-.787 0-1.552.104-2.295.311-.35.098-.679.223-.988.374-.06-.093-.13-.18-.215-.262-.291-.282-.641-.422-1.049-.422h-1.574v11.925h3.06V9.257c0-1.204.204-1.673.613-2.09s1.035-.621 1.881-.621h1.32V3.524h-.752zM13.15 0h-1.575v13.981c0 .415.146.762.438 1.045s.641.423 1.049.423h1.574V1.467A1.4 1.4 0 0 0 14.2.422 1.46 1.46 0 0 0 13.15 0zm8.013 13.027c1.82 0 2.395-1.94 2.395-3.582s-.576-3.607-2.395-3.607-2.373 1.965-2.373 3.607.552 3.582 2.373 3.582zm.003-9.793c3.452 0 5.365 2.314 5.365 6.172 0 3.843-1.914 6.15-5.365 6.15-3.52 0-5.347-2.307-5.347-6.15 0-3.858 1.827-6.172 5.347-6.172zM5.343 13.027c-1.82 0-2.373-1.94-2.373-3.582s.553-3.607 2.373-3.607c.945 0 1.553.533 1.92 1.272h3.18c-.639-2.461-2.397-3.876-5.097-3.876C1.826 3.235 0 5.548 0 9.407c0 3.843 1.826 6.15 5.346 6.15 2.699 0 4.455-1.414 5.093-3.866H8.354s-.561.015-.877.319c-.55.528-.998 1.019-2.134 1.019zm32.078-9.072c-.277-.297-.634-.444-1.072-.444h-1.53v7.472c0 .711-.211 1.23-.634 1.556a2.28 2.28 0 0 1-1.426.489 2.28 2.28 0 0 1-1.425-.489c-.423-.326-.635-.845-.635-1.556V5.022c0-.415-.138-.77-.415-1.066s-.633-.444-1.071-.444h-1.53v6.934c0 2.104.582 3.407 1.618 4.134s2.177.977 3.459.977 2.428-.252 3.46-.977 1.618-2.03 1.618-4.134V5.022c0-.415-.138-.77-.415-1.066zM49.503.422A1.46 1.46 0 0 0 48.453 0h-1.535v4.421c-.465-.437-1.446-1.186-2.931-1.186-3.125 0-4.931 2.313-4.931 6.172 0 3.843 1.855 6.15 5.432 6.15 3.492 0 5.435-2.288 5.45-6.101h.001V1.467a1.4 1.4 0 0 0-.437-1.045zm-5.018 12.606c-1.849 0-2.411-1.941-2.411-3.582s.562-3.607 2.411-3.607c1.837 0 2.426 1.941 2.434 3.577v.039c-.002 1.639-.588 3.573-2.434 3.573zm17.283-4.315a1.54 1.54 0 0 1-.158.697c-.066.132-.151.255-.258.37a1.35 1.35 0 0 1-1.027.444h-6.217c.079 1.42.791 2.805 2.329 2.805 1.135 0 1.582-.492 2.134-1.019.316-.303.876-.319.876-.319h2.086c-.639 2.453-2.394 3.866-5.094 3.866-3.519 0-5.346-2.306-5.346-6.149 0-3.859 1.827-6.172 5.346-6.172 2.7 0 4.459 1.415 5.097 3.876.115.44.189.915.23 1.42l.002.181zm-5.331-2.873c-1.268 0-2.108.953-2.199 2.086h4.414c-.007-1.133-.979-2.086-2.214-2.086zM80 6.538c0-1.057-.423-1.879-1.268-2.466-.816-.557-2.041-.837-3.673-.837-1.458 0-2.58.338-3.367 1.013-.699.587-1.125 1.388-1.241 2.299h2.93c.146-.37.395-.595.717-.713a3.16 3.16 0 0 1 1.093-.177c.509 0 .869.066 1.245.199.444.156.678.418.678.858 0 .472-.64.912-1.923 1.082-1.542.203-2.76.372-3.868 1.2-.712.531-1.161 1.506-1.161 2.738 0 1.321.404 2.253 1.18 2.841.692.524 1.816.972 3.637.972 1.632 0 2.856-.362 3.672-.92.845-.587 1.321-1.264 1.349-2.501V6.538zm-3.287 5.798c-.467.461-1.108.692-1.924.692-.254 0-1.057-.058-1.391-.384-.244-.237-.393-.48-.393-.912 0-.317.111-.618.305-.827.431-.464.904-.529 1.923-.756.675-.151 1.503-.403 1.929-.646v.898c0 .807.018 1.476-.448 1.936h0z" stroke="none" fill="#004e6f" fill-rule="nonzero"/></symbol></svg>
