<svg xmlns="http://www.w3.org/2000/svg" viewBox="-12.06 13.62 64 64" width="64" height="64"><defs><filter height="71.5" width="56.2" y="41.4" x="555.7" filterUnits="userSpaceOnUse" ><feColorMatrix values="1 0 0 0 0 0 1 0 0 0 0 0 1 0 0 0 0 0 1 0"/></filter></defs><path d="M26.95 31.978c-2.308.563-4.673.788-7.037.788-2.42 0-4.785-.28-7.037-.788 1.858-2.984 4.28-5.63 7.037-7.825 2.76 2.196 5.18 4.84 7.037 7.825zM48.173 14.75c-2.927-.788-5.9-1.182-8.895-1.126-6.868 0-13.624 2.027-19.366 5.855C14.17 15.652 7.47 13.57.546 13.625c-3.096 0-6.08.394-8.895 1.126-1.182.28-2.364.676-3.5 1.126-.056.056-.113.113-.056.17.507 1.07 1.07 2.14 1.633 3.153.056.056.113.056.17.056a31.33 31.33 0 0 1 10.64-1.858 30.99 30.99 0 0 1 16.157 4.504c-2.984 2.533-5.573 5.573-7.544 8.95-1.07 1.745-1.914 3.603-2.646 5.517C5.04 40.253 4.31 44.42 4.31 48.53c0 9.908 4.166 18.86 10.8 25.22a20.29 20.29 0 0 0 1.633 1.464c.45.394.9.732 1.35 1.07.563.45 1.182.9 1.8 1.295.056.056.113.056.17 0 .62-.394 1.182-.844 1.8-1.295.45-.338.9-.676 1.35-1.07a20.1 20.1 0 0 0 1.633-1.464c6.643-6.36 10.753-15.313 10.753-25.22 0-4.954-1.07-9.852-3.096-14.356l-.676-1.407c-.338-.676-.732-1.35-1.126-1.97-2.027-3.378-4.56-6.418-7.544-8.95 4.898-2.927 10.47-4.504 16.157-4.504 3.603 0 7.262.62 10.64 1.858.056 0 .113 0 .17-.056.62-1.013 1.126-2.083 1.633-3.096.056-.056 0-.17-.056-.17-1.182-.45-2.364-.844-3.547-1.126z" fill="#151f34"/><path d="M31.734 48.585c0 8.276-3.2 15.82-8.5 21.393-.957-3.04-1.407-6.193-1.407-9.345 0-8.276 3.2-15.82 8.5-21.393a31.83 31.83 0 0 1 1.407 9.345" fill="#348540"/><path d="M18.054 60.576a31.83 31.83 0 0 1-1.407 9.345c-5.46-5.8-8.5-13.455-8.5-21.393 0-3.265.507-6.418 1.464-9.345a31.43 31.43 0 0 1 8.444 21.393" fill="#7dbc42"/></svg>
