<svg xmlns="http://www.w3.org/2000/svg" height="64" viewBox="0.6 0.1 14.733 14.737" width="64"><path d="M7.967.1A7.37 7.37 0 0 0 .598 7.468a7.37 7.37 0 0 0 7.368 7.368 7.37 7.37 0 0 0 7.368-7.368A7.37 7.37 0 0 0 7.967.1zm4.975 8.66c0 .445-.256.835-.757.924-.868.156-2.694.245-4.218.245s-3.35-.1-4.218-.245a.89.89 0 0 1-.757-.924V5.888c0-.445.345-.857.757-.924.256-.045.857-.1 1.325-.1.178 0 .323.134.323.345v2.015l2.582-.056 2.582.056V5.22c0-.2.145-.345.323-.345.467 0 1.07.045 1.325.1.423.067.757.48.757.924l-.022 2.872z" fill="#ed2226"/></svg>
