<svg xmlns="http://www.w3.org/2000/svg" xmlns:xlink="http://www.w3.org/1999/xlink" viewBox="0 0 81 54" fill="#fff" fill-rule="evenodd" stroke="#000" stroke-linecap="round" stroke-linejoin="round"><use xlink:href="#A" x=".5" y=".5"/><symbol id="A" overflow="visible"><path d="M65 35c0 3.316-1.746 4.94-5 4.998V40H20v-.002c-3.254-.058-5-1.682-5-4.998s1.746-4.94 5-4.997V30h40v.003c3.254.057 5 1.682 5 4.997m-5 7.503V42.5H20v.003c-3.254.057-5 1.682-5 4.998s1.746 4.939 5 4.997v.002h40v-.003c3.254-.057 5-1.681 5-4.997s-1.746-4.94-5-4.997m12.5-27.497v-.003c-3.254.058-5 1.682-5 4.998v27.5c0 3.315 1.746 4.939 5 4.997v-.005C77.38 52.32 80 47.446 80 37.5V25c0-6.63-2.62-9.879-7.5-9.995m-65-.003v.003C2.62 15.121 0 18.37 0 25v12.5c0 9.946 2.62 14.819 7.5 14.992v.005c3.254-.057 5-1.681 5-4.997V20c0-3.315-1.746-4.94-5-4.998m65-2.502C72.5 4.212 68.134.15 60 .007V0H20v.007C11.867.15 7.5 4.212 7.5 12.5v.004C12.38 12.59 15 15.027 15 20s2.62 7.41 7.5 7.496v.004h35v-.004C62.38 27.41 65 24.973 65 20s2.62-7.41 7.5-7.496V12.5z" stroke="none" fill="#e42528" fill-rule="nonzero"/></symbol></svg>
