<svg xmlns="http://www.w3.org/2000/svg" xmlns:xlink="http://www.w3.org/1999/xlink" viewBox="0 0 81 61" fill="#fff" fill-rule="evenodd" stroke="#000" stroke-linecap="round" stroke-linejoin="round"><use xlink:href="#A" x=".5" y=".5"/><symbol id="A" overflow="visible"><g stroke="none" fill-rule="nonzero"><path d="M29.481 13.213l-5.319.864-4.853 2.128-4.122 2.593-3.923 4.787-2.216 2.347-2.143.79-.567-1.385.991-1.43.222-2.017.664.027.725.662-.196-2.055-.804-.539.025-.783-1.904 1.078-1.724 2.035-.36 1.818.738 1.456.688 2.474 1.399.662 1.472-.072 1.395-.811-.931 4.721.931 5.252-1.025 2.425-3.356 3.616.597 2.16 1.59 2.503 2.998 2.109 1.59.218 1.768.06-1.103 4.527 4.056 1.662 5.053.665 1.728-1.13.133-3.059 1.928-3.191.133-2.527 4.654.332 4.322-.399-4.322 2.593.732 3.125 2.726 4.255 2.66 1.13 2.127-.864.864-1.728 4.455-3.391.864.731 6.981.266 1.396-1.13.133-1.995-.465-.864-.333-5.386-2.327-4.654.399-2.061 1.396.732 3.923 3.657 1.928.133 2.127-.864 2.128-1.596 1.063-3.458 6.25.399 3.79-1.463 3.058-2.859 2.194-4.122.532-4.853-.465-5.652-1.197-5.053-1.197-1.596-1.662-.532-2.926 3.191-2.659.931-2.327-3.856-2.327-2.128-1.263-.798-5.053-4.189-4.055-2.194-4.056-.332-4.72.798-4.122 1.529-2.859 2.327-2.26 2.726-2.327.665-4.056 3.856" fill="#ff0"/><g fill="#ffc"><path d="M14.055 25.213c-4.556 5.314-3.544 11.759-2.281 18.073l-2.022-5.107-.745-4.683.213-4.788 1.915-4.576 2.873-4.257 4.469-3.724 4.895-2.022 5.746-.745-5.321 6.065c-4.272 1.386-6.791 2.319-9.743 5.763"/><path d="M35.503 9.022c-3.167 3.09-4.898 5.421-6.913 9.039-1.442 2.588-3.059 5.081-4.575 7.633-.767 1.292-.839 2.375-1.068 3.865l-2.234-2.66 1.064-3.192 3.618-6.491 7.662-7.555 2.447-.639m15.641-7.661c-2.537.951-6.75 1.264-7.042 4.176-.208 2.068.156 3.107 1.402 5.295-3.078-3.186-3.84-2.693-9.79-1.703l2.554-3.618 4.469-2.767 5.746-1.277 2.66-.106"/></g><g fill="#cc0"><path d="M58.145 40.745c.844.521.826.899.685 1.256l1.998-.799 1.295-1.739.961-2.477-1.228-.923-5.368.685-.4 1.085.114 1.542.514.914.799.4.628.057m-.498-9.18c-2.691.777-2.67.991-3.464 3.66 1.049-1.683 1.825-2.532 3.464-3.66m17.89-19.975c-.478.221-.944.327-1.243.765-.644.942-1.195 1.734-2.26 2.395-.536.333-1.091.549-1.659.726-.472.147-.755.015-1.156.304l.714.125h1.575l1.942-1.199 1.142-1.199.945-1.917m-42.857 5.971c-1.058 2.897-1.983 5.379-3.587 8.002 2.054-2.214 3.3-4.095 4.477-6.598.457-.972.543-2.113 1.817-1.689.057.971.262 1.942.319 2.912.688-4.931 2.628-6.994 7.138-8.908l-3.826.457-3.598.799-1.77 2.57-.971 2.455"/><path d="M41.414 17.448c.973 4.577 2.373 8.97 2.981 13.62.395 3.022.438 4.473-1.082 7.08-1.662-.108-2.693.08-4.3.607-6.397 2.097-10.067 5.181-14.378-1.032l4.129 1.946 2.943-.579 5.197-3.026 4.054-.8 1.313-5.482-.971-7.252-.114-3.426.228-1.656M52.435 45.77c-.538 3.719 1.238 5.718.502 6.745-.208.291-.49.798-.805.937-1.125.497-2.671-.093-2.781.198H45.64l-1.485-.628 2.284-2.684 2.227-4.854 1.428-4.911h.743l1.599 5.196"/><path d="M46.197 34.959c.302 1.688.825 2.09 1.619 3.724-.529 2.667-1.378 5.837-2.4 8.19-.431.992-.779 1.539-1.539 2.306-1.283 1.296-2.58 2.424-4.035 3.547-1.047.807-1.778.402-3.071.219-.55.996-.701 1.55-1.713 2.056-1.556.777-2.947-.898-4.169-1.884l2.644 4.13 1.828 1.713 1.542.229 2.055-1.257 1.085-2.055 2.284-1.713 2.798-2.398 1.77-2.513 1.598-2.969 2.056-6.167.171-2.342-2.57-1.142-1.956-1.674M25.711 46.856c2.882 0 5.926-.16 8.565-1.371a23.53 23.53 0 0 1 2.398-3.026c-.832 1.571-1.093 2.459-1.313 4.225l-.857 1.256-6.51.171-2.113-.228-.228-.228.057-.799m-.398-1.999l-.224-2.028c-.492 2.964-.374 4.95-1.738 7.605-1.019 1.18-2.273 2.254-3.71 2.829.122.728.158 1.183.087 1.717-.253 1.92-4.093 1.072-5.673.995l7.603 1.957 1.713-.685.571-3.312 1.599-2.969.286-1.827-.514-4.282m-4.283-16.731c-.079 1.441-.172 2.042.463 3.315.808 1.618 1.8 3.138 2.678 4.737l.286-3.198-3.426-4.853M9.307 39.012l-.742 1.578c.68 2.292 1.285 3.743 2.581 5.745-.226.811-.394 1.166-.913 1.827-1.14-.175-2.153-.226-3.308-.222l3.826 2.969 1.884-.343 1.884-1.884-2.684-4.168-2.528-5.502m66.236-28.179c.777 3.494 1.779 6.719 1.686 10.297-.114 4.391-.97 9.937-5.038 12.584-4.556 2.965-9.904 1.563-14.903.292l6.11 2.512 5.71.285 3.883-1.142 3.027-2.513 2.284-4.796.856-5.539-.685-5.425-1.256-5.367-1.674-1.19M7.555 21.248c-2.068 1.346-2.881 1.937-2.654 4.432l.618 2.242.876.593 1.083.361 1.958-.464 1.005-3.118-2.783 1.366h-.644l-.722-1.108.876-1.288.464-2.448.592.18.722.567-.103-1.288-.49-.824-.489-.412-.309 1.211M53.957 1.588c1.836 1.705 4.088 3.186 5.557 5.269.568.806 1.199 1.219-.01 2.358 1.278-.365 1.752-.325 2.775-.202 1.86.225 3.604 2.87 3.715 4.765-.022.177-.517.58-1.955.977-.028.055-.812-.107-.793-.054.15.409.349.472.654.663.066.455.109 1.157.419 1.654.905-.016 1.79.083 2.676.258.298.495.253.99.228 1.485l1.028-.171-.285-2.341.913-1.542-1.313-2.97-2.513-2.398-.242-.012-2.826-1.734-4.608-3.77-3.422-2.235m3.095 14.069c-.097.169-.243.44-.43.628.764.723 1.142 1.207 1.414 2.23l-2.593 1.287-2.194 2.103c-.963-.518-1.202-.916-1.668-1.904-.543.144-1.056.282-1.504.118.284.002.459-.069.743-.244l1.396-1.45 2.466-1.868 1.614-.526c.205-.084.551-.289.757-.373"/><path d="M59.434 18.237c-2.75 1.481-5.383 2.97-6.789 5.782 0-3.569 3.584-5.14 6.789-5.782m-7.335-7.021c-2.042 1.392-3.486 4.202-3.304 6.94-.665-2.371-.429-4.611 1.613-6.249l1.034-.503.658-.189"/></g><g fill="#000"><path d="M79.577 17.68c-.371-2.335-.984-4.602-1.836-6.231-.104-.199-.261-.401-.456-.594-.423-.417-1.05-.812-1.697-1.035-.686-.236-1.409-.284-1.983.016a1.65 1.65 0 0 0-.411.304c-.372.377-.685.834-.999 1.293-.349.511-.701 1.024-1.121 1.383-.487.417-1.097.669-1.672.9a11.33 11.33 0 0 0-.87-1.691 16.19 16.19 0 0 0-1.333-1.801 7.39 7.39 0 0 0-1.218-1.162c-.425-.324-.859-.597-1.366-.914-1.358-.85-2.513-1.864-3.693-2.899l-1.606-1.381C56.508 1.554 53.889.431 51.088.255c-2.782-.175-5.719.589-9.187 2.049-1.674.704-2.917 1.537-4 2.538-1.034.957-1.912 2.059-2.878 3.345-.562.04-1.059.123-1.567.327-.56.224-1.123.586-1.798 1.182l-1.381 1.276-1.215 1.222c-3.158.507-5.73 1.067-8.034 1.96-2.356.912-4.433 2.168-6.566 4.06a17.27 17.27 0 0 0-2.286 2.454 18.07 18.07 0 0 0-1.691 2.685l-1.317 1.366c-.451.406-.932.748-1.471.956h0l-.457.187c-.016-.009-.024-.056-.047-.142.774-.739.896-1.824.967-2.901.093.111.182.248.275.391l.332.479.525.663.185-.827c.155-.693.271-1.616.09-2.416-.117-.519-.358-.982-.778-1.31l.116-.297.383-1.01.228-.648-.678.117c-.902.157-2.839 1.222-4.204 2.638-.507.526-.942 1.107-1.228 1.717-.297.635-.431 1.299-.315 1.963.101.581.391 1.151.919 1.689l.28 1.028a7.02 7.02 0 0 0 .372.959c.397.826 1.03 1.33 1.763 1.566.589.189 1.24.198 1.879.059a17.16 17.16 0 0 0-.234 2.301c-.04 1.078-.001 2.268.118 3.65l.116.999.152.915-.359.978-.557 1.517-1.227 1.216-1.145 1.134-.277.267c-.773.744-.927.892-.707 2.202.134.803.398 1.616.81 2.4a8.64 8.64 0 0 0 1.543 2.083c.816.818 2.153 1.833 3.552 2.365.8.304 1.625.453 2.398.328l-.121.358-.408 1.003c-.949 2.082.025 3.168 1.543 3.86.757.345 1.658.58 2.495.798l.558.147c.992.268 2.705.76 4.27.859 1.708.108 3.248-.244 3.661-1.777.163-.607.258-1.073.297-1.529.036-.423.022-.85-.028-1.379.487-1.079.693-1.382 1.049-1.903l.179-.265c.382-.566.561-.967.626-1.419.062-.436.01-.871-.069-1.536l-.035-.277a24.51 24.51 0 0 0 2.965.203l1.492-.038-.388.2-.185.095c-1.319.678-1.374 1.963-.961 3.284.372 1.192 1.138 2.409 1.619 3.149 1.01 1.557 1.974 2.875 3.143 3.591 1.225.751 2.625.839 4.432-.138.919-.498 1.209-1.005 1.599-1.689l.398-.661c.38-.252 1.325-1.031 2.253-1.798l.988-.811c.245.18.542.306.899.391.465.111 1.019.162 1.682.209.497.037 2.116.035 3.162.035l.752.001c1.08.007 1.952-.05 2.611-.423.702-.398 1.118-1.103 1.209-2.367.04-.562.047-.908-.031-1.262-.073-.331-.215-.631-.459-1.071l-.044-1.639-.047-1.739c-.018-.683-.094-1.238-.232-1.785s-.334-1.064-.597-1.69l-.464-1.194-.379.139.058-.022.321-.117v-.002l-.761-1.837.06-.395.602.58.888.856c.677.652 1.296 1.245 2.023 1.674.752.444 1.598.701 2.693.649 1.146-.054 2.373-.537 3.383-1.282.977-.721 1.761-1.694 2.088-2.77l.283-.934.227-.745c1.607.272 3.333.36 4.999.186 1.608-.169 3.162-.578 4.502-1.293 1.97-1.051 3.446-2.599 4.507-4.437h.001c1.186-2.054 1.85-4.475 2.102-6.966.202-1.998.092-4.714-.324-7.333h0zM58.75 34.47c-.926-.312-1.57-.767-2.384-1.279.222.998.322 2.054.027 3.051-.468 1.582-1.224 4.169.923 4.647.818.182 1.188.155 2.342-.44-.934.212-1.405.16-2.047.041-.582-.107-.89-.476-1.052-.912.203.147.535.226 1.101.363 1.592.384 3.109-.383 3.406-1.487.173-.645.143-.984.51-1.863l1.019.279-.592 1.929c-.512 1.669-2.505 3.015-4.265 2.984-1.627-.029-2.659-1.048-3.782-2.047l-2.257-2c-2.025-.639-3.648-1.386-5.527-2.777 1.337 1.572 2.245 2.442 4.11 3.224-.271 2.767-1.233 4.785-2.053 7.433-.371 1.197-3.301 5.996-4.113 6.463-.579.333-4.205 3.387-4.887 3.79-.508.675-.954 1.607-1.718 2.01-2.327 1.231-3.823-1.126-5.075-3.116-.57-.907-2.154-3.518-.773-4.25 1.305-.691 2.036-1.185 3.368-2.059.196.357.531.701.75 1.057l-.145-1.169c-.088-.706-.084-1.279-.028-1.989l.162-2.063c-.2.699-.601 1.398-.801 2.097l-.184.715c-2.988.611-5.954.649-8.943.116l-.618-3.086c-.059.926-.021 3.485-.026 4.918-.004 1.11-.05 1.49-.623 2.435-.536.884-.763 1.085-1.513 2.578.062.943.064 1.566-.187 2.46-.417 1.488-4.618.335-5.726.032-1.365-.374-4.187-.929-3.477-2.748.624-1.602 1.02-3.29 1.325-5.531-2.501-3.602-4.826-8.539-5.272-12.913-.347-3.396-.139-5.486.596-7.564 1.164-3.292 2.794-6.141 5.408-8.435 3.526-3.094 6.822-4.337 11.983-5.122-1.241 1.389-2.469 2.858-3.807 4.434-1.355 1.595-2.16 3.205-3.02 4.95-1.188 2.409-1.163 3.326.412 5.441 1.357 1.823 2.09 2.643 2.683 4.427-.489 1.009-.667 1.862-.832 3.239 1.662 1.817 2.897 3.062 4.512 3.446 1.583.376 2.905.303 4.322-.42 3.146-1.608 6.056-3.685 9.605-3.771 1.642-4.036 1.476-7.408.687-11.313-.538-2.667-.754-5.192-.922-7.911-.666 2.8-.791 5.262-.297 8.051.595 3.361 1.058 7.075-.598 10.028-3.209.246-5.959 2.198-8.851 3.696-1.162.602-2.373.661-3.659.308-1.194-.328-2-1.118-3.287-2.602-.02-1.49.316-2.177 1-3.527 1.099-2.167 2.312-4.184 3.644-6.316-1.63 1.968-3.175 3.612-4.458 5.59-.491-1.397-1.192-2.107-2.354-3.68-1.135-1.537-1.253-2.21-.405-3.988.853-1.787 1.577-3.358 3.029-4.926 2.509-2.71 4.807-5.725 7.551-8.394 1.49-1.449 2.095-1.399 4.071-1.698A69.42 69.42 0 0 0 42.09 8.27c-1.762.164-3.464.224-5.18.267l-.053.002c1.688-2.155 2.667-3.356 5.407-4.547C49.011 1.062 53.299.745 58.599 5.2c1.374 1.155 2.573 2.276 3.966 3.272a5.02 5.02 0 0 0-1.516.36c.701-.133 1.51-.001 2.237.132a17.1 17.1 0 0 0 .628.388c.983.579 1.542.899 2.207 1.826a19.67 19.67 0 0 1 1.805 3.036c-.338-.121-.622-.223-.875-.298-.186-.086-.389-.142-.603-.162a1.88 1.88 0 0 0-1.171.273l-.041.019c-.544.265-1.387.567-1.95.658.288.099.924.137 1.224.018.04-.016.081-.028.123-.038a1.88 1.88 0 0 0-.05 1.821c.053.123.123.233.201.313a15.27 15.27 0 0 0-.792.321c1.258-.192 2.391-.224 3.618-.063l.238 1.214-.456.036-.037.003c-.581-.464-1.228-.386-2.111-.184-2.688.613-2.056 2.121-3.292 4.393 1.284-1.569 1.188-3.211 3.281-3.707.488-.115.819-.26 1.149-.21-.594.299-1.107.794-1.311 1.369-.574 1.622-.218 2.988-.849 4.503.782-1.354.829-2.675 1.527-4.1.251-.512 1.182-1.331 1.754-1.343l.471-.01c.138.901.222 1.796.168 2.538-.097 1.355-.449 3.365-.66 4.135.708-.91 1.03-2.837 1.341-4.194.324-1.412.242-3.108-.042-4.625-.389-2.082 1.756-1.743 3.001-2.725.915-.722 1.545-1.873 2.384-2.69.832-.809 2.142.38 2.47 1.171 1.419 3.434 2.066 8.837 1.691 12.299-.421 3.884-2.297 8.125-5.723 10.037-4.368 2.438-9.518.948-13.857-.514h0zm-6.206 17.253c-.143 1.603-.677 1.709-2.084 1.684l-3.832-.078c-.913-.079-1.425-.16-1.704-.368 1.434-1.053 3.872-5.4 4.347-6.897.503-1.581 1.053-2.961 1.462-4.422.188.611.337 1.216.611 1.865.457 1.084.681 1.754.713 2.917l.104 3.681c.393.688.454.835.384 1.619h0zM9.378 39.581c.911 3.151 2.462 6.247 4.183 8.85v.046c-.108.447-.233.883-.494 1.233-1.229 1.645-4.357-.77-5.262-1.693-.989-1.011-1.652-2.207-1.81-3.329-.115-.818-.003-.838.568-1.417l2.31-2.338.506-1.35h0zM7.639 19.766c-.233.501-.399.881-.512 1.272-.49 1.693.222 3.205-1.316 4.432.722 1.458.689 2.039 2.37 1.366.648-.26 1.183-.624 1.66-1.055a31.16 31.16 0 0 0-.637 1.822l-.095.312c-1.202.51-2.783.834-3.388-.429-.294-.613-.46-1.215-.674-1.99-1.979-2.051.979-4.758 2.591-5.729h0zm.973 2.172c-.244-.244-.44-.41-.756-.374a4.59 4.59 0 0 1 .112-.595c.025-.097.052-.191.081-.286.41.239.518.671.563 1.255h0zm59.349-7.659l.22.48a2 2 0 0 0-.17.139c-.098-.228-.239-.435-.414-.608l.364-.011h0zm-57.142 9.308h0 0 0zm-6.442 2.177h0 0 0zm21.658 22.641h.001-.001 0zm17.839 5.326h0 0 0 0zm7.25-13.781h0 0 0 0zM7.843 26.052h0 0l-.013-.035.013.035h0zm69.6 5.722h0l.009.006-.009-.006h0zM.859 25.559c.315-3.566 1.008-5.106 3.542-7.79-3.178 2.24-3.971 3.258-3.542 7.79M.04 22.646c.35-1.605.676-2.211 1.666-3.528C.1 20.24-.109 20.7.04 22.646M37.326.272c-1.904.459-2.267.811-2.838 2.677.911-1.367 1.436-1.811 2.838-2.677M40.328 0c-3.776.926-4.886 1.584-6.14 5.96 1.594-3.205 2.802-4.386 6.14-5.96m8.132 15.955c.403-1.783 1.118-3.502 3.887-4.831-3.671.919-4.359 2.461-3.887 4.831m23.356.123c2.174-.775 3.222-2.522 3.742-4.579-.851 1.723-2.164 3.165-3.948 4.047-.957.473-1.568.308-2.637.207 1.087.312 1.775.704 2.842.324"/><path d="M57.009 17.826a2.47 2.47 0 0 0-1.385-1.258c.533-.285 1.057-.584 1.466-.955-1.197.554-2.59.419-3.617 1.112-.905.611-2.153 2.547-3.073 3.368.666-.258 1.308-.705 1.898-1.177a2.45 2.45 0 0 0 .24 1.041 2.46 2.46 0 0 0 1.085 1.124 5.54 5.54 0 0 0-.802 1.465c1.75-2.074 4.288-3.641 6.674-4.311-.667-.009-1.457.115-2.261.38a2.43 2.43 0 0 0-.225-.791m-2.518 15.675l-.287 1.742.765-1.894c.281-.613.438-.671 1.033-.995l1.61-.775-1.646.306c-1.16.196-1.296.474-1.476 1.616M34.683 12.762c-1.346 1.33-2.653 5.895-3.071 7.721.658-1.517 2.304-5.761 3.567-6.841.349-.298.592-.482.854-.615-.904 1.516-.838 1.893-.52 3.924.269-2.065.983-2.863 2.155-4.403a30.92 30.92 0 0 0 3.804-1.223l-4.456.462c-1.248.118-1.449.098-2.334.973"/></g><path d="M53.017 20.531c-.245-.513-.026-1.131.488-1.376a1.04 1.04 0 0 1 1.379.487c.023.049.042.099.057.149-.491.365-.942.794-1.319 1.292-.254-.102-.479-.288-.605-.552m11.492-4.445a.76.76 0 0 1 .829-.697.78.78 0 0 1 .628 1.099c-.389.067-.778.18-1.179.328-.167-.172-.301-.485-.277-.73" fill="#ffc"/></g></symbol></svg>
