<svg xmlns="http://www.w3.org/2000/svg" xmlns:xlink="http://www.w3.org/1999/xlink" viewBox="0 0 81 64" fill="#fff" fill-rule="evenodd" stroke="#000" stroke-linecap="round" stroke-linejoin="round"><use xlink:href="#A" x=".5" y=".5"/><symbol id="A" overflow="visible"><path d="M45.877 37.539l-6.17.013v.082c-1.944 0-3.888.006-5.832-.002-2.065-.008-3.669.914-4.918 2.485-1.802 2.266-3.217 4.884-5.958 6.277-.303.154-.547.754-.514 1.12.02.224.597.474.962.58a20.47 20.47 0 0 0 9.868.414c4.691-.945 8.92-2.797 11.967-6.668.698-.887 1.179-1.982 1.594-3.046.293-.751-.03-1.273-.997-1.254zM7.314 31.628L5.79 29.527c-.401-.568-.779-.697-1.358-.162C2 31.617 1.129 37.318 2.768 40.171l4.546-8.543zm65.32 1.217c-1.179-.232-1.293-.72-1.805-1.355-2.675-3.316-4.663-6.39-8.172-9.823-5.649-5.891-12.669-8.937-20.862-9.39-4.445-.246-8.828.131-13.194.796-2.1.319-3.477-.499-4.492-2.184-.383-.636-.792-1.31-.95-2.02-.584-2.62-1.092-5.258-1.576-7.899-.175-.955-.447-1.177-1.334-.786a5.02 5.02 0 0 0-2.865 3.278c-.376 1.278-.712 2.634-.692 3.95.047 3.027.277 6.053.522 9.072.136 1.68-.102 3.137-1.265 4.476-1.322 1.523-2.461 3.205-3.688 4.812C7.823 31.575 4.13 37.792 1.735 44.727.517 48.251-.418 51.819.191 55.612c.207 1.288.312 2.593.465 3.889.184 1.56 2.323 3.434 3.894 3.408 1.803-.03 3.365-.78 4.728-1.845 2.407-1.88 5.065-3.296 7.786-4.639 3.24-1.6 6.215-3.597 8.727-6.228.185-.194.332-.424.522-.669-1.282-.309-2.46-.537-3.602-.884-1.245-.378-1.492-1.31-.653-2.322.281-.339.682-.576 1.013-.876.963-.873 1.987-1.693 2.856-2.652.825-.911 1.455-1.995 2.221-2.962 1.375-1.737 3.163-2.716 5.407-2.76 1.347-.026 2.697-.048 4.044-.017 1.065.024 1.917-.318 2.755-1.005 2.052-1.681 3.801-3.365 5.999-4.843 3.485-1.948 6.099-2.783 9.45-2.446 6.018.605 10.509 3.79 14.147 8.402.134.17.248.407.223.65s-.376.127-.376.127l-4.293-4.488c-.753 1.048-1.146 1.766-1.768 2.528-.849 1.04-1.892 1.943-2.62 3.056-1.183 1.807-.679 4.502.92 5.55.136-.209.361-.406.393-.63.123-.866.194-1.519 1.221-1.586.466-.03.133-.574 1.018-.621.276.021.255.255.531.234.223-.032.322-.416.563-.52.478-.207 1.113-.182 1.583-.162.872.036 1.288-.422 1.402-.981.075-.368.109-.658.29-1.305.417 1.667 1.503 2.17 2.849 2.158.637-.006 1.291-.138 1.905-.028 1.495.095 1.76.431 2.602.751 1.299.493 2.479 1.088 2.928 2.625.133-.042.393-.074.531-.34s.135-.626.146-1.078c.123-5.11-2.457-8.731-7.362-10.257zm-52.773 7.982c1.181-.019 1.359.252.863 1.281-.111.229-.222.481-.242.729-.157 1.994-1.137 3.42-2.867 4.407-.874.499-1.64 1.189-2.52 1.676-.483.267-1.234.553-1.617.354-.207-.107-.323-.388-.42-.707-.185-.614-.233-1.271-.087-1.896.731-3.135 3.718-5.792 6.89-5.843h0zm-7.115 10.669c.012-.266 1.24-1.323 1.551-1.273s.293.27.294.589-1.229 1.421-1.821 1.053c-.138-.118-.059-.318-.024-.37h0zm11.623-1.066c-1.561 1.444-3.303 2.601-4.997 3.668-1.323.834-2.767 1.477-4.111 2.281-2.047 1.225-4.056 2.512-6.077 3.779-1.506.945-2.97 1.993-4.908 1.944.03-.161.026-.275.058-.286 2.038-.715 3.542-2.067 4.933-3.704.84-.988 2.099-1.672 3.264-2.322 2.438-1.361 4.413-3.157 5.918-5.518 1.074-1.684 1.116-1.617 2.896-.839.916.4 1.701.543 3.023.997h0zm28.69-23.894c2.337-.048 3.407.223 5.063.611 1.312.318 2.23 1.196 2.766 1.906-2.09-.639-3.147-.983-5.216-1.168-4.446-.531-8.349.857-11.772 3.654-1.448 1.183-2.883 2.398-4.187 3.731-.771.788-.787.994-2.64.877 1.639-2.537 3.134-5.106 4.598-7.651 4.735-8.232 16.636-6.822 20.725-2.048.167.195.42.712.42.712s-3.87-2.07-6.716-2.07c-1.714 0-2.144.127-3.204.309-.28.048-.747.29-.743.7s.59.394.907.439h0zm24.96 14.971c-1.243-1.924-3.12-1.508-4.878-1.515-.524-.002-1.048.028-1.572.047-.885.032-1.631-.175-2.017-1.085-.099-.234-.348-.596-.555-.633a.44.44 0 0 0-.305.263c-.798 1.697-2.346 1.965-3.952 1.999-.929.02-1.691.148-2.148 1.071-.088.179-.541.385-.619.322-.198-.159-.441-.52-.379-.702.237-.691.489-1.417.916-1.996 1.083-1.47 2.265-2.869 3.507-4.421l1.888 1.986c.522.533 1.009 1.13 1.621 1.532.323.212 1.021.245 1.288.031.231-.184.259-.922.08-1.255-.366-.682-.943-1.247-1.41-1.877-.348-.471-.658-.969-1.072-1.585 4.185-.747 10.4 4.334 9.606 7.819h0z" stroke="none" fill="#000" fill-rule="nonzero"/></symbol></svg>
