<svg xmlns="http://www.w3.org/2000/svg" xmlns:xlink="http://www.w3.org/1999/xlink" viewBox="0 0 32 32"><defs><linearGradient id="m8ldm9sv5a" x1="1567.5" y1="4147.997" x2="1567.5" y2="4133.997" gradientTransform="translate(-1564 -4125.995)" gradientUnits="userSpaceOnUse"><stop offset=".2"></stop><stop offset=".95" stop-opacity="0"></stop></linearGradient><linearGradient id="4wi3l9hesb" x1="-109.091" y1="1678.695" x2="-109.091" y2="1667.695" gradientTransform="matrix(1.898 0 0 1.4 229.866 -2319.016)" xlink:href="#m8ldm9sv5a"></linearGradient><linearGradient id="qlf0vvr9ac" x1="2702.282" y1="1029.564" x2="2702.282" y2="1022.564" gradientTransform="matrix(.875 0 0 1.471 -2352.401 -1488.757)" gradientUnits="userSpaceOnUse"><stop offset=".3"></stop><stop offset="1" stop-opacity="0"></stop></linearGradient><linearGradient id="3rha502e4d" x1="-54.063" y1="3514.585" x2="-54.063" y2="3484.509" gradientTransform="matrix(1.994 0 0 .399 122.807 -1387.263)" gradientUnits="userSpaceOnUse"><stop offset=".28"></stop><stop offset=".95" stop-opacity="0"></stop></linearGradient><linearGradient id="tyljju2ejf" y1="32" x2="32" gradientUnits="userSpaceOnUse"><stop offset=".1" stop-color="#08bdba"></stop><stop offset=".9" stop-color="#0f62fe"></stop></linearGradient><mask id="e9zu2nboke" x="0" y="0" width="32" height="32" maskUnits="userSpaceOnUse"><path d="M16 30v-2a12 12 0 1 0-3.107-23.6l-.518-1.932A14 14 0 1 1 16 30z" fill="#fff"></path><path d="M16 25a9.009 9.009 0 0 1-8.682-11.382l1.93.527A7.007 7.007 0 0 0 16 23z" fill="#fff"></path><path d="M9 28.125A14 14 0 0 1 3.878 9l1.732 1A12.011 12.011 0 0 0 10 26.392z" fill="#fff"></path><path transform="rotate(180 3.5 15.002)" fill="url(#m8ldm9sv5a)" d="M1 8.003h5v14H1z"></path><path transform="rotate(60 22.77 23.884)" fill="url(#4wi3l9hesb)" d="M18.024 16.182h9.492v15.403h-9.492z"></path><path transform="rotate(-60 12.689 20.176)" fill="url(#qlf0vvr9ac)" d="M8.531 15.03h8.315v10.294H8.531z"></path><path d="m22.364 22.367-1.414-1.414a7 7 0 1 0-9.9-9.9L9.636 9.638a9 9 0 0 1 12.728 12.729z" fill="#fff"></path><path transform="rotate(90 15 9.003)" fill="url(#3rha502e4d)" d="M12 3.003h6v12h-6z"></path><path d="M14 27.003h4v4h-4z"></path></mask></defs><g data-name="Layer 2"><g data-name="Light theme icons"><g mask="url(#e9zu2nboke)"><path fill="url(#tyljju2ejf)" d="M0 0h32v32H0z"></path></g><path d="M20 16a4 4 0 0 0-4-4 3.956 3.956 0 0 0-2.019.566L8.927 7.515A2.027 2.027 0 0 0 9 7a2 2 0 1 0-2 2 2.048 2.048 0 0 0 .512-.072l5.055 5.053A3.944 3.944 0 0 0 12 16a4 4 0 0 0 3 3.858v7.412a2 2 0 1 0 2 0v-7.412A4 4 0 0 0 20 16zm-6 0a2 2 0 1 1 2 2 2 2 0 0 1-2-2z" fill="#001d6c"></path></g></g></svg>
