<svg xmlns="http://www.w3.org/2000/svg" xmlns:xlink="http://www.w3.org/1999/xlink" viewBox="0 0 79 81" fill="#fff" fill-rule="evenodd" stroke="#000" stroke-linecap="round" stroke-linejoin="round"><use xlink:href="#A" x=".5" y=".5"/><symbol id="A" overflow="visible"><g stroke="none" fill-rule="nonzero"><path d="M24.686 77.314c-2.112-2.897-1.448-6.88 1.448-8.992.604-.422 1.267-.724 1.931-.966l.121-2.414c-1.569-.664-2.836-2.354-2.957-4.043l-2.354-.603c-.422.603-.905 1.086-1.509 1.509-2.897 2.112-6.94 1.448-8.992-1.448-2.112-2.897-1.448-6.88 1.448-8.992s6.88-1.448 8.992 1.448c.543.785.966 1.69 1.147 2.595l4.104 1.086c1.086-.422 2.293-.483 3.38-.06l2.354-1.69c-.604-2.474.362-5.19 2.474-6.699 2.897-2.112 6.94-1.448 8.992 1.448 2.112 2.836 1.448 6.88-1.448 8.992-2.112 1.509-4.949 1.629-7.121.302l-2.354 1.69c.06 1.147-.362 2.293-1.086 3.199l-.241 4.224c.845.483 1.569 1.086 2.112 1.871 2.052 2.897 1.448 6.88-1.448 8.992-2.836 2.112-6.88 1.448-8.992-1.448h0z" fill="#0690ba"/><path d="M33.679 70.797c-.664-.905-1.569-1.509-2.535-1.75l.362-6.156c.966-.785 1.328-2.052.905-3.199l4.345-3.138a4.6 4.6 0 0 0 6.035.483c2.112-1.509 2.535-4.405 1.026-6.518-1.509-2.052-4.405-2.535-6.518-1.026-1.871 1.388-2.474 3.923-1.388 5.914l-4.405 3.138c-.905-.785-2.233-.845-3.319-.181l-5.975-1.569c.06-1.026-.241-2.112-.845-2.957-1.509-2.052-4.466-2.535-6.518-1.026-2.112 1.509-2.535 4.405-1.026 6.518s4.406 2.535 6.518 1.026c.785-.603 1.328-1.328 1.629-2.173l5.25 1.388c-.422.845-.302 1.931.302 2.716.604.845 1.569 1.207 2.535 1.147l-.302 5.431c-.905 0-1.81.302-2.595.905-2.052 1.509-2.535 4.406-1.026 6.518s4.406 2.535 6.518 1.026 2.535-4.405 1.026-6.518h0zm4.768-19.674c1.207-.845 2.836-.604 3.681.603s.603 2.836-.603 3.681c-.966.724-2.293.664-3.199-.06l.785-.603c.543.302 1.328.302 1.871-.121.785-.543.966-1.629.362-2.414-.543-.785-1.629-.966-2.414-.362-.543.422-.785 1.086-.664 1.75l-.785.603a2.78 2.78 0 0 1 .966-3.078h0zm-19.191 7.725c-1.267.905-3.017.603-3.923-.664s-.604-3.017.664-3.923 3.017-.603 3.923.603c.302.422.483.905.543 1.388l-.966-.241c-.06-.181-.121-.422-.302-.603-.603-.845-1.81-1.026-2.655-.422s-1.026 1.81-.422 2.655 1.81 1.026 2.655.422c.241-.181.422-.422.543-.664l.905.241c-.241.483-.543.905-.966 1.207h0zm8.389 16.355c-.905-1.267-.603-3.017.604-3.923.422-.302.905-.483 1.388-.543l-.06.966c-.302.06-.543.121-.785.302-.845.603-1.026 1.81-.422 2.655s1.81 1.026 2.655.422 1.026-1.81.422-2.655c-.121-.181-.302-.302-.483-.422l.06-1.026a2.74 2.74 0 0 1 1.147.905c.905 1.267.604 3.017-.664 3.923-1.207.966-2.957.664-3.862-.603h0z" fill="#c3e8f2"/><path d="M72.121 67.538c-3.38 1.086-7.001-.785-8.087-4.164-.241-.724-.302-1.388-.302-2.112l-2.293-.845c-1.086 1.328-3.138 1.931-4.768 1.509l-1.328 2.052c.422.543.785 1.207.966 1.931 1.086 3.38-.785 7.001-4.164 8.147-3.38 1.086-7.001-.785-8.087-4.164s.785-7.001 4.164-8.087c.905-.302 1.871-.362 2.836-.241l2.293-3.561c-.06-1.147.241-2.293 1.026-3.199l-.905-2.776c-2.535-.181-4.768-1.992-5.612-4.405-1.086-3.38.785-7.001 4.164-8.087s7.001.785 8.087 4.164c.785 2.474 0 5.19-1.931 6.88l.905 2.776c1.147.302 2.112 1.026 2.716 2.052l2.897 1.388c.724-.664 2.595-1.026 3.5-1.328 3.38-1.086 7.001.785 8.147 4.164 1.026 3.199-.845 6.819-4.224 7.906h0z" fill="#0690ba"/><path d="M68.681 56.977c-1.026.362-1.931 1.026-2.474 1.871l-5.794-2.233c-.422-1.147-1.569-1.871-2.776-1.81l-1.629-5.069c2.052-1.026 3.078-3.38 2.354-5.612-.785-2.474-3.44-3.802-5.854-3.017s-3.802 3.44-3.017 5.854c.724 2.233 2.957 3.561 5.19 3.138l1.629 5.13a2.69 2.69 0 0 0-1.147 3.078l-3.38 5.19c-.966-.362-2.052-.422-3.078-.121-2.474.785-3.802 3.44-3.017 5.854.785 2.474 3.44 3.802 5.854 3.017 2.474-.785 3.802-3.44 3.017-5.854-.302-.905-.845-1.69-1.569-2.233l2.957-4.587a2.78 2.78 0 0 0 2.716.603c.966-.302 1.629-1.086 1.871-2.052l5.069 1.992a4.64 4.64 0 0 0 .06 2.716c.785 2.474 3.44 3.802 5.854 3.017 2.474-.785 3.802-3.44 3.017-5.854-.785-2.474-3.38-3.802-5.854-3.017h0zm-17.2-10.621c-.422-1.388.302-2.897 1.69-3.319 1.388-.483 2.897.302 3.319 1.69.362 1.147-.121 2.414-1.086 3.017l-.302-.905c.483-.422.724-1.147.483-1.81a1.71 1.71 0 0 0-3.259 1.086 1.85 1.85 0 0 0 1.448 1.207l.302.966c-1.147-.06-2.233-.785-2.595-1.931h0zm1.388 20.639c.483 1.509-.362 3.078-1.81 3.561-1.509.483-3.078-.362-3.561-1.81s.362-3.078 1.81-3.561c.483-.181 1.026-.181 1.509-.06l-.543.845c-.181 0-.422 0-.664.06-.966.302-1.509 1.388-1.207 2.414.302.966 1.388 1.509 2.414 1.207.966-.302 1.509-1.388 1.207-2.354-.121-.302-.241-.543-.483-.724l.543-.785c.302.302.603.724.785 1.207h0zm18.105-2.897c-1.509.483-3.078-.362-3.561-1.81-.181-.483-.181-1.026-.06-1.509l.905.362c-.06.302-.06.603.06.845.302 1.026 1.388 1.509 2.414 1.207s1.569-1.388 1.207-2.414c-.302-.966-1.388-1.509-2.414-1.207-.181.06-.422.181-.543.302l-.966-.362c.302-.362.724-.664 1.267-.845 1.509-.483 3.078.362 3.561 1.81.422 1.569-.362 3.138-1.871 3.621h0z" fill="#c3e8f2"/><path d="M77.01 19.922c0 3.561-2.897 6.457-6.457 6.457-.724 0-1.448-.121-3.199-.483l-1.509 1.871c1.931 1.569 1.931 3.681 1.026 5.13l1.509 1.871c.664-.241 1.388-.362 2.112-.362 3.561 0 6.457 2.897 6.457 6.457s-2.897 6.457-6.457 6.457-6.457-2.897-6.457-6.457c0-.966.241-1.931.603-2.776l-2.655-3.259c-1.147-.302-2.112-.966-2.776-1.931H56.31c-.845 2.354-3.199 3.923-5.794 3.923-3.561 0-6.457-2.897-6.457-6.457s2.897-6.457 6.457-6.397a6.46 6.46 0 0 1 5.914 3.983h2.897c.664-.966 1.629-1.69 2.776-1.931l2.655-3.259c-.422-.845-.604-1.81-.604-2.776 0-3.561 2.897-6.457 6.457-6.457s6.397 2.897 6.397 6.397h0z" fill="#0690ba"/><path d="M65.905 19.922c0 1.086.362 2.112 1.026 2.897l-3.923 4.768c-1.207.06-2.293.905-2.595 2.052h-5.371c-.362-2.233-2.293-3.983-4.587-3.983a4.61 4.61 0 0 0-4.647 4.647 4.65 4.65 0 0 0 4.647 4.647c2.354 0 4.285-1.75 4.647-3.983h5.371c.302 1.147 1.328 1.992 2.595 2.052l3.923 4.768c-.664.785-1.026 1.81-1.026 2.897a4.65 4.65 0 0 0 4.647 4.647 4.65 4.65 0 0 0 4.647-4.647 4.61 4.61 0 0 0-4.647-4.647 4.7 4.7 0 0 0-2.595.785l-3.44-4.224c.845-.483 1.388-1.388 1.388-2.354 0-1.026-.543-1.931-1.388-2.414l3.44-4.224a4.7 4.7 0 0 0 2.595.785 4.65 4.65 0 0 0 4.647-4.647 4.65 4.65 0 0 0-4.647-4.647c-2.595.181-4.707 2.293-4.707 4.828h0zM50.516 33.018a2.68 2.68 0 0 1-2.655-2.655 2.68 2.68 0 0 1 2.655-2.655c1.207 0 2.233.845 2.535 1.931h-.966c-.241-.603-.845-1.026-1.569-1.026-.966 0-1.69.785-1.69 1.69 0 .966.785 1.75 1.69 1.75.724 0 1.328-.422 1.569-1.026h.966c-.302 1.207-1.328 1.992-2.535 1.992h0zm20.036 5.069c1.569 0 2.836 1.267 2.836 2.836s-1.267 2.836-2.836 2.836-2.836-1.267-2.836-2.836c0-.543.181-1.026.422-1.448l.664.785a2.17 2.17 0 0 0-.121.664 1.88 1.88 0 0 0 1.871 1.871 1.88 1.88 0 0 0 1.871-1.871 1.88 1.88 0 0 0-1.871-1.871c-.302 0-.603.06-.845.181l-.604-.724c.422-.302.966-.422 1.448-.422h0zm2.836-18.165c0 1.569-1.267 2.836-2.836 2.836-.543 0-1.026-.121-1.448-.422l.604-.724c.241.121.543.181.845.241a1.88 1.88 0 0 0 1.871-1.871 1.88 1.88 0 0 0-1.871-1.871 1.88 1.88 0 0 0-1.871 1.871c0 .241.06.422.121.603l-.664.785c-.241-.422-.422-.905-.422-1.448 0-1.569 1.267-2.836 2.836-2.836 1.569.06 2.836 1.267 2.836 2.836h0z" fill="#c3e8f2"/><path d="M33.256.309a6.42 6.42 0 0 1 4.104 8.147c-.241.724-.543 1.328-1.026 1.931l1.328 2.052c1.69-.422 3.681.241 4.768 1.569l2.293-.845c0-.724.121-1.448.302-2.112a6.42 6.42 0 0 1 8.147-4.104c3.38 1.086 5.25 4.707 4.104 8.147a6.42 6.42 0 0 1-8.147 4.104c-.905-.302-1.75-.785-2.414-1.448l-3.923 1.509c-.604.966-1.569 1.75-2.716 2.052l-.905 2.776c1.931 1.69 2.716 4.406 1.931 6.88a6.42 6.42 0 0 1-8.147 4.104c-3.319-1.267-5.19-4.888-4.104-8.268.785-2.474 3.078-4.224 5.612-4.405l.905-2.776c-.724-.905-1.086-2.052-.966-3.259l-2.293-3.561c-.966.121-1.931.06-2.836-.241-3.38-1.086-5.25-4.707-4.164-8.087 1.147-3.38 4.768-5.25 8.147-4.164h0z" fill="#0690ba"/><path d="M29.817 10.87c1.026.362 2.112.302 3.078-.06L36.214 16c-.362 1.207.181 2.414 1.147 3.078l-1.69 5.069c-2.233-.362-4.466.905-5.19 3.138-.785 2.474.543 5.069 2.957 5.914 2.414.785 5.069-.543 5.914-2.957.724-2.233-.302-4.587-2.354-5.612l1.69-5.069c1.207.06 2.354-.664 2.776-1.81l5.794-2.233c.543.845 1.388 1.569 2.474 1.871 2.474.785 5.069-.543 5.914-3.017.785-2.474-.543-5.069-3.017-5.914-2.474-.785-5.069.543-5.914 2.957a4.64 4.64 0 0 0-.06 2.716l-5.069 1.992c-.181-.905-.845-1.75-1.81-2.052a2.91 2.91 0 0 0-2.716.543l-2.957-4.587c.724-.543 1.267-1.328 1.569-2.233.785-2.474-.543-5.069-3.017-5.854s-5.069.543-5.854 3.017.543 5.13 3.017 5.914h0zm7.664 18.769c-.483 1.388-1.931 2.173-3.319 1.69s-2.173-1.931-1.69-3.319c.362-1.147 1.509-1.871 2.655-1.81l-.302.905c-.664.06-1.207.543-1.448 1.147a1.71 1.71 0 0 0 3.259 1.086c.241-.664 0-1.388-.483-1.81l.302-.966c.966.664 1.448 1.871 1.026 3.078h0zm10.984-17.562c.483-1.509 2.052-2.293 3.561-1.81 1.448.483 2.293 2.112 1.81 3.561s-2.052 2.293-3.561 1.81c-.483-.181-.905-.483-1.207-.845l.966-.362c.181.121.362.241.603.302.966.302 2.052-.241 2.354-1.207s-.241-2.052-1.207-2.354-2.052.241-2.414 1.207c-.06.302-.121.603-.06.845l-.905.362c-.06-.483-.06-1.026.06-1.509h0zM32.11 3.749c1.509.483 2.293 2.052 1.81 3.561-.181.483-.422.905-.845 1.267l-.483-.785a2.17 2.17 0 0 0 .483-.724c.302-1.026-.241-2.052-1.207-2.414-.966-.302-2.052.241-2.414 1.207-.302.966.241 2.052 1.207 2.354.181.06.422.121.604.06l.543.845c-.483.121-.966.121-1.509-.06-1.509-.483-2.293-2.052-1.81-3.561.543-1.388 2.173-2.233 3.621-1.75h0z" fill="#c3e8f2"/><path d="M10.203 34.285c.603.422 1.086.966 1.509 1.569l2.354-.603c.121-1.69 1.388-3.44 2.957-4.043l-.121-2.414c-.664-.181-1.328-.543-1.931-.966-2.836-2.173-3.5-6.216-1.388-9.113s6.095-3.5 8.992-1.388c2.836 2.112 3.5 6.095 1.388 8.992-.543.785-1.267 1.388-2.112 1.871l.241 4.224c.724.905 1.147 2.052 1.086 3.199l2.354 1.69c2.173-1.328 5.009-1.207 7.121.302 2.897 2.112 3.5 6.156 1.388 8.992-2.052 2.897-6.095 3.5-8.992 1.448-2.112-1.509-3.078-4.224-2.474-6.699l-2.354-1.69c-1.086.422-2.293.422-3.38-.06l-4.104 1.086c-.181.966-.543 1.871-1.147 2.595-2.052 2.836-6.035 3.5-8.932 1.388-2.897-2.052-3.5-6.095-1.448-8.992 2.112-2.897 6.095-3.5 8.992-1.388z" fill="#0690ba"/><path d="M10.203 42.252c.664-.905.966-1.931.905-2.957l5.975-1.569a2.81 2.81 0 0 0 3.319-.181l4.345 3.138c-1.026 1.992-.483 4.526 1.388 5.914 2.112 1.509 5.009 1.086 6.518-1.026 1.509-2.052 1.086-5.009-1.026-6.518-1.871-1.388-4.466-1.147-6.095.483l-4.345-3.138c.422-1.086.121-2.414-.845-3.199l-.362-6.156a4.17 4.17 0 0 0 2.535-1.75c1.509-2.112 1.026-5.009-1.026-6.518s-5.009-1.086-6.518 1.026c-1.509 2.052-1.086 5.009 1.026 6.518.785.543 1.69.845 2.595.905l.302 5.431c-.966-.121-1.931.302-2.535 1.147a2.77 2.77 0 0 0-.302 2.716l-5.25 1.388c-.302-.845-.845-1.629-1.629-2.173-2.112-1.509-5.009-1.026-6.518 1.026s-1.086 5.009 1.026 6.518 5.009 1.026 6.518-1.026h0zm20.217-1.569c1.207.845 1.448 2.535.603 3.681-.845 1.207-2.535 1.448-3.681.604-.966-.724-1.328-1.992-.905-3.078l.785.604c-.121.664.121 1.328.664 1.75.785.543 1.871.362 2.414-.362.543-.785.422-1.871-.362-2.414-.543-.422-1.328-.422-1.871-.121l-.905-.603c.966-.724 2.233-.785 3.259-.06h0zM17.082 24.811c-1.267-.905-1.509-2.716-.604-3.923.905-1.267 2.716-1.509 3.923-.603 1.267.905 1.569 2.716.604 3.923a2.74 2.74 0 0 1-1.147.905l-.06-1.026c.181-.121.362-.241.483-.422.603-.845.422-2.052-.422-2.655s-2.052-.422-2.655.422-.422 2.052.422 2.655c.241.181.543.302.785.302l.06.966c-.422-.06-.905-.241-1.388-.543h0zM4.168 37.846c.905-1.267 2.716-1.569 3.923-.603.422.302.724.724.966 1.147l-.966.241c-.121-.241-.302-.483-.543-.664-.845-.603-2.052-.422-2.655.422s-.422 2.052.422 2.655 2.052.422 2.655-.422c.121-.181.241-.362.302-.603l1.026-.241c-.06.483-.181.966-.543 1.388-.905 1.267-2.655 1.509-3.923.603-1.328-.905-1.569-2.716-.664-3.923h0z" fill="#c3e8f2"/></g></symbol></svg>
