<?xml version="1.0" encoding="UTF-8" standalone="no"?>
<!-- Uploaded to: SVG Repo, www.svgrepo.com, Generator: SVG Repo Mixer Tools -->
<svg xmlns:dc="http://purl.org/dc/elements/1.1/"
     xmlns:cc="http://creativecommons.org/ns#"
     xmlns:rdf="http://www.w3.org/1999/02/22-rdf-syntax-ns#"
     xmlns:svg="http://www.w3.org/2000/svg"
     xmlns="http://www.w3.org/2000/svg"
     xmlns:xlink="http://www.w3.org/1999/xlink"
     width="128" height="128" version="1.1">
    <title>Folder NFS Icon</title>
    <desc>This is shape (source) for Clarity vector icon theme for gtk</desc>
    <metadata>
        <rdf:RDF>
            <cc:Work rdf:about="">
                <dc:title>Folder NFS Icon</dc:title>
                <dc:description>This is shape (source) for Clarity vector icon theme for gtk</dc:description>
                <dc:creator>
                    <cc:Agent>
                        <dc:title>Jakub Jankiewicz</dc:title>
                    </cc:Agent>
                </dc:creator>
                <dc:rights>
                    <cc:Agent>
                        <dc:title>Jakub Jankiewicz</dc:title>
                    </cc:Agent>
                </dc:rights>
                <dc:date>2010</dc:date>
                <dc:format>image/svg+xml</dc:format>
                <dc:type rdf:resource="http://purl.org/dc/dcmitype/StillImage" />
                <cc:license rdf:resource="http://creativecommons.org/licenses/by-sa/3.0/" />
             </cc:Work>
        </rdf:RDF>
    </metadata>
    <path d="M 15.15625 16.84375 C 11.062788 16.84375 7.75 20.156538 7.75 24.25 L 7.75 37.375 L 7.75 48.59375 L 7.75 89.125 C 7.75 93.218456 11.062788 96.5 15.15625 96.5 L 58.15625 96.5 L 58.15625 101.15625 L 52.21875 101.15625 C 50.78024 101.15625 49.625 102.31149 49.625 103.75 L 49.625 108.5625 C 49.625 110.00101 50.78024 111.15625 52.21875 111.15625 L 75.78125 111.15625 C 77.21976 111.15625 78.375 110.00101 78.375 108.5625 L 78.375 103.75 C 78.375 102.31149 77.21976 101.15625 75.78125 101.15625 L 69.84375 101.15625 L 69.84375 96.5 L 112.84375 96.5 C 116.93721 96.5 120.25 93.218456 120.25 89.125 L 120.25 37.375 C 120.25 33.281538 116.93713 30.02515 112.84375 30 L 53.40625 30 L 53.40625 24.25 C 53.40625 20.156538 50.124712 16.84375 46.03125 16.84375 L 15.15625 16.84375 z M 74.90625 53.125 C 76.20042 53.12502 77.279989 53.331779 78.1875 53.75 C 79.102884 54.168259 79.70801 54.704571 80 55.34375 C 80.299859 55.975073 80.468738 57.03949 80.46875 58.5625 L 80.46875 59.3125 L 75.84375 59.3125 L 75.84375 57.90625 C 75.843743 57.243394 75.774613 56.806516 75.65625 56.625 C 75.537873 56.443516 75.33869 56.375016 75.0625 56.375 C 74.762624 56.375016 74.532821 56.505385 74.375 56.75 C 74.225059 56.994647 74.156245 57.346612 74.15625 57.84375 C 74.156245 58.482962 74.232635 58.957719 74.40625 59.28125 C 74.571962 59.604807 75.039144 60.011066 75.8125 60.46875 C 78.029953 61.786612 79.423923 62.874388 80 63.71875 C 80.576055 64.56313 80.874988 65.903121 80.875 67.78125 C 80.874988 69.146453 80.698533 70.165414 80.375 70.8125 C 80.059336 71.45959 79.446633 71.995586 78.53125 72.4375 C 77.615847 72.871523 76.559007 73.09375 75.34375 73.09375 C 74.010111 73.09375 72.884455 72.848795 71.9375 72.34375 C 70.99843 71.838706 70.385728 71.187493 70.09375 70.40625 C 69.80177 69.625012 69.624999 68.529975 69.625 67.09375 L 69.625 65.8125 L 74.28125 65.8125 L 74.28125 68.15625 C 74.281245 68.874364 74.342483 69.326079 74.46875 69.53125 C 74.602897 69.736427 74.824808 69.843753 75.15625 69.84375 C 75.487679 69.843753 75.717167 69.729167 75.875 69.46875 C 76.040711 69.20834 76.124993 68.82544 76.125 68.3125 C 76.124993 67.184046 75.995255 66.440975 75.6875 66.09375 C 75.371841 65.746539 74.582682 65.156564 73.34375 64.34375 C 72.104809 63.523061 71.277455 62.933402 70.875 62.5625 C 70.472541 62.191618 70.143304 61.686241 69.875 61.03125 C 69.614586 60.376282 69.499999 59.517994 69.5 58.5 C 69.499999 57.032229 69.660357 55.959921 70.03125 55.28125 C 70.410032 54.602614 71.038517 54.097552 71.875 53.71875 C 72.711477 53.332094 73.722546 53.12502 74.90625 53.125 z M 47.125 53.53125 L 51.28125 53.53125 L 54.09375 62.15625 L 54.09375 53.53125 L 58.25 53.53125 L 58.25 72.6875 L 53.875 72.6875 L 51.28125 63.96875 L 51.28125 72.6875 L 47.125 72.6875 L 47.125 53.53125 z M 60.25 53.53125 L 68.6875 53.53125 L 68.6875 57.375 L 65.21875 57.375 L 65.21875 61 L 68.3125 61 L 68.3125 64.65625 L 65.21875 64.65625 L 65.21875 72.6875 L 60.25 72.6875 L 60.25 53.53125 z M 7.75 102.90625 L 7.75 109.40625 L 47.34375 109.40625 C 47.34265 109.36265 47.34375 109.32515 47.34375 109.28125 L 47.34375 103.84375 C 47.34375 103.52401 47.3816 103.20934 47.4375 102.90625 L 7.75 102.90625 z M 80.5625 102.90625 C 80.6184 103.20934 80.65625 103.52401 80.65625 103.84375 L 80.65625 109.28125 C 80.65625 109.32515 80.65735 109.36265 80.65625 109.40625 L 120.25 109.40625 L 120.25 102.90625 L 80.5625 102.90625 z "/>
</svg>
