<svg xmlns="http://www.w3.org/2000/svg" width="680px" height="536px" viewBox="0 0 680 536" fill="none" aria-hidden="true">
<path d="M554.266 195.006C554.266 188.91 559.279 183.83 565.448 183.83H624.131C627.93 183.83 631.442 181.967 633.517 178.744L678.159 109.919C683.031 102.471 677.661 92.6614 668.772 92.6614H566.38C560.218 92.6614 555.206 87.6448 555.206 81.486V11.3156C555.206 5.15681 550.186 0 544.024 0H437.188C431.026 0 426.007 5.00967 426.007 11.1754V206.49C388.397 134.217 312.84 84.8281 225.702 84.8281C101.053 84.8281 0 185.827 0 310.411C0 434.994 101.053 536 225.702 536C312.973 536 388.628 486.457 426.182 414.009C426.834 445.805 429.96 470.86 444.57 492.433C472.372 532.966 521.381 535.475 566.093 535.475C586.871 535.475 602.42 533.541 624.846 530.171C630.363 529.316 634.45 524.586 634.45 519.065V439.072C634.45 432.766 629.22 427.686 622.841 427.896L588.021 429.185C553.411 429.185 554.273 406.526 554.273 379.411L554.266 195.006ZM225.695 411.676C169.739 411.676 124.383 366.337 124.383 310.411C124.383 254.484 169.746 209.145 225.695 209.145C281.644 209.145 327.008 254.484 327.008 310.411C327.008 366.337 281.644 411.676 225.695 411.676Z" fill="url(#paint0_linear_16_6366799d3abf59c)"/>
<defs><linearGradient class="cerosgradient" data-cerosgradient="true" id="CerosGradient_id14c0f50a1" gradientUnits="userSpaceOnUse" x1="50%" y1="100%" x2="50%" y2="0%"><stop offset="0%" stop-color="#d1d1d1"/><stop offset="100%" stop-color="#d1d1d1"/></linearGradient>
<linearGradient id="paint0_linear_16_6366799d3abf59c" x1="364.5" y1="145.5" x2="700.5" y2="509.5" gradientUnits="userSpaceOnUse">
<stop stop-color="#00008B"/>
<stop offset="1" stop-color="#1A6AFF"/>
</linearGradient>
</defs>
</svg>
