<svg xmlns="http://www.w3.org/2000/svg" xmlns:xlink="http://www.w3.org/1999/xlink" viewBox="0 0 81 70" fill="#fff" fill-rule="evenodd" stroke="#000" stroke-linecap="round" stroke-linejoin="round"><use xlink:href="#A" x=".5" y=".5"/><symbol id="A" overflow="visible"><g stroke="none" fill-rule="nonzero"><path d="M76.866 52.612c-4.269 2.225-26.385 11.319-31.094 13.773s-7.324 2.431-11.043.653S7.473 55.753 3.233 53.727C1.114 52.714 0 51.86 0 51.052v-8.086s30.64-6.671 35.587-8.445 6.663-1.839 10.872-.297S75.84 40.308 80 41.831l-.002 7.972c.001.799-.959 1.676-3.133 2.809" fill="#912626"/><path d="M76.864 44.574c-4.269 2.224-26.385 11.318-31.093 13.772s-7.324 2.431-11.043.653S7.473 47.714 3.234 45.689s-4.328-3.421-.164-5.052l32.517-12.589c4.946-1.774 6.662-1.839 10.872-.296s26.193 10.292 30.353 11.816 4.321 2.781.052 5.006" fill="#c6302b"/><path d="M76.866 39.528c-4.269 2.225-26.385 11.319-31.094 13.774s-7.324 2.43-11.043.652S7.473 42.669 3.233 40.643C1.114 39.63 0 38.776 0 37.969v-8.087s30.64-6.67 35.587-8.445 6.663-1.839 10.872-.297S75.84 27.223 80 28.747l-.002 7.973c.001.799-.959 1.676-3.133 2.809" fill="#912626"/><path d="M76.864 31.49c-4.269 2.225-26.385 11.318-31.093 13.773s-7.324 2.43-11.043.652S7.473 34.631 3.234 32.605s-4.328-3.421-.164-5.052l32.517-12.588c4.946-1.774 6.662-1.839 10.872-.297S72.652 24.96 76.812 26.484s4.321 2.781.052 5.006h0" fill="#c6302b"/><path d="M76.866 25.959c-4.269 2.225-26.385 11.319-31.094 13.774s-7.324 2.43-11.043.652S7.473 29.1 3.233 27.075C1.114 26.062 0 25.208 0 24.401v-8.087s30.64-6.67 35.587-8.444 6.663-1.839 10.872-.297S75.84 13.655 80 15.179l-.002 7.972c.001.798-.959 1.675-3.133 2.808" fill="#912626"/><path d="M76.864 17.921c-4.269 2.225-26.385 11.319-31.093 13.773s-7.324 2.43-11.043.653S7.473 21.062 3.234 19.036s-4.328-3.421-.164-5.052L35.588 1.396c4.946-1.775 6.662-1.838 10.872-.296s26.193 10.292 30.353 11.816 4.321 2.78.052 5.005" fill="#c6302b"/><path d="M49.776 10.054l-6.878.714-1.54 3.705-2.487-4.134-7.942-.714 5.926-2.137-1.778-3.281 5.548 2.17 5.231-1.713-1.414 3.392 5.333 1.997m-8.827 17.975l-12.837-5.324 18.394-2.823-5.558 8.147M23.15 12.113c5.43 0 9.831 1.706 9.831 3.811s-4.402 3.811-9.831 3.811-9.831-1.706-9.831-3.811 4.402-3.811 9.831-3.811"/><path d="M57.905 11.067l10.886 4.302-10.877 4.298-.009-8.6" fill="#621b1c"/><path d="M45.861 15.831l12.044-4.764.009 8.6-1.181.462-10.872-4.298" fill="#9a2928"/></g></symbol></svg>
