<svg xmlns="http://www.w3.org/2000/svg" xmlns:xlink="http://www.w3.org/1999/xlink" viewBox="0 0 81 81" fill="#fff" fill-rule="evenodd" stroke="#000" stroke-linecap="round" stroke-linejoin="round"><use xlink:href="#A" x=".5" y=".5"/><symbol id="A" overflow="visible"><g stroke="none" fill-rule="nonzero"><path d="M42.952 68.621c-.006-.977-.164-13.531-4.147-24.333C34.657 33.041 27.627 23.62 27.627 23.62s14.552 8.858 21.23 16.239c5.755 6.36 10.779 16.374 12.058 19.023h0c-1.387 1.024-2.287 2.671-2.287 4.527 0 3.106 2.518 5.624 5.624 5.624s5.624-2.518 5.624-5.624c0-3.011-2.367-5.47-5.342-5.617-.889-2.271-4.651-11.138-12.233-19.691-8.787-9.912-21.02-16.52-21.02-16.52s13.216 4.218 19.895 7.17c5.928 2.621 15.734 8.067 17.862 9.257-.187.559-.288 1.158-.288 1.78 0 3.106 2.518 5.624 5.624 5.624S80 42.895 80 39.789s-2.518-5.624-5.624-5.624c-1.183 0-2.281.365-3.187.99h0c-2.162-1.423-11.011-6.996-24.37-12.097-15.466-5.905-26.854-7.944-26.854-7.944l-1.969 4.429s7.478 4.956 14.86 20.984c6.772 14.704 6.332 25.769 6.214 27.497-2.559.527-4.483 2.793-4.483 5.508 0 3.106 2.518 5.624 5.624 5.624s5.624-2.518 5.624-5.624c0-2.11-1.163-3.95-2.883-4.912z" fill="#3d4c67"/><path d="M19.965 15.888c0 2.951-2.392 5.343-5.343 5.343S9.28 18.839 9.28 15.888s2.392-5.343 5.342-5.343 5.343 2.392 5.343 5.343" fill="#f6861a"/><g fill="#3d4c67"><path d="M45.835 5.624c0 3.106-2.518 5.624-5.624 5.624s-5.624-2.518-5.624-5.624S37.105 0 40.211 0s5.624 2.518 5.624 5.624"/><use xlink:href="#C"/><use xlink:href="#C" x="-48.506" y="47.662"/><path d="M11.248 39.789c0 3.106-2.518 5.624-5.624 5.624S0 42.895 0 39.789s2.518-5.624 5.624-5.624 5.624 2.518 5.624 5.624"/></g></g></symbol><defs ><path id="C" d="M69.877 16.169c0 3.106-2.518 5.624-5.624 5.624s-5.624-2.518-5.624-5.624 2.518-5.624 5.624-5.624 5.624 2.518 5.624 5.624"/></defs></svg>
